<svg
    xmlns="http://www.w3.org/2000/svg"
    viewBox="0 0 515.6 621.72"
    >
    <defs>
        <!-- <style>
            .cls-1{fill:#fff;}
            .cls-1,.cls-2,.cls-3{stroke:#fff;stroke-miterlimit:10;stroke-width:3px;}
            .cls-2{fill:none;}
            .cls-3{fill:#64c4f4;}
        </style> -->
    </defs>
    <title>Asset 13</title>
    <g id="Layer_2" data-name="Layer 2">
        <g id="Layer_1-2" data-name="Layer 1">
            <path class="cls-1" d="M79.5,444.51"/>
            <path class="cls-2" d="M81,447q89.37,34.14,186,65c55.19-17.47,124-43.28,196-71-61.68-18-124.68-33.58-190-45C243.12,400.09,110.69,435.11,81,447Z"/>
            <path class="cls-2" d="M267,512v13"/>
            <path class="cls-2" d="M462.5,440.51v13L266,526,81,461V447"/>
            <path class="cls-2" d="M463,445.84l32.5,11.67-241,89-211-78s1-2,5-4,31-10,31-10"/>
            <polyline class="cls-2" points="43.5 468.51 1.5 513.51 1.5 525.51 223.5 614.51 495.5 500.51 495.5 457.51"/>
            <polyline class="cls-2" points="254.5 546.51 224.5 600.51 1.5 511.51"/>
            <polygon class="cls-2" points="54.5 483.51 233.5 550.51 216.5 582.51 27.5 511.51 54.5 483.51"/>
            <line class="cls-2" x1="65.05" y1="525.62" x2="89.85" y2="496.74"/>
            <line class="cls-2" x1="194.76" y1="536.01" x2="175.5" y2="567.11"/>
            <path class="cls-2" d="M196,604c-.61,2.58-1.1,6.64,1,10,3,4.83,9.59,5.28,20,6,13.37.92,21.85-1.38,24-2,6.59-1.89,12.45-3.67,15-9a13.76,13.76,0,0,0,1-8"/>
            <path class="cls-2" d="M4.5,527.51c-2.45,5.68-1.72,9.16-1,11,4.1,10.41,25.46,12.12,40,9a54.45,54.45,0,0,0,7-2"/>
            <path class="cls-2" d="M447.5,520.51a43.09,43.09,0,0,0,24,3c5.31-.91,17-2.93,21-12a17.43,17.43,0,0,0,1-10"/>
            <path class="cls-2" d="M194.5,535.51"/>
            <path class="cls-3" d="M105.5,545.51"/>
            <path class="cls-2" d="M467.71,447.53l-3.21-233a7.84,7.84,0,0,0,7-4c0-12.67-1-35,0-38,3-2,32,0,39-7s2-148,0-155-128-11-131-8-2,136,0,148,48,20,50,20,1,40,1,40a8.06,8.06,0,0,0,8,4l2.33,220.16"/>
            <path class="cls-2" d="M397.41,25.82c-2.85,2.85-1.9,104.5,0,106.4s94,15.2,95,13.3,1.9-109.25,0-112.1S400.26,23,397.41,25.82Z"/>
            <path class="cls-2" d="M464.5,214.51h-27"/>
        </g>
    </g>
</svg>
