<svg xmlns="http://www.w3.org/2000/svg" xmlns:xlink="http://www.w3.org/1999/xlink" viewBox="0 0 113.83 134.43"><defs><style>.cls-1{fill:url(#linear-gradient);}.cls-2{fill:url(#linear-gradient-2);}.cls-3{fill:url(#linear-gradient-3);}</style><linearGradient id="linear-gradient" x1="26.04" y1="24.97" x2="87.85" y2="86.78" gradientUnits="userSpaceOnUse"><stop offset="0" stop-color="#0d0"/><stop offset="1" stop-color="#003800"/></linearGradient><linearGradient id="linear-gradient-2" x1="33.21" y1="72.37" x2="80.7" y2="119.85" xlink:href="#linear-gradient"/><linearGradient id="linear-gradient-3" x1="40.37" y1="110.52" x2="73.7" y2="143.85" xlink:href="#linear-gradient"/></defs><title>Asset 16</title><g id="Layer_2" data-name="Layer 2"><g id="Layer_1-2" data-name="Layer 1"><path class="cls-1" d="M57.14,0A15.9,15.9,0,0,1,67.9,5.09Q88,25.19,108.17,45.31c6,6,8.29,13,1.55,19.6-7,6.77-13.54,3.35-19.41-2.59-8.81-8.91-18-17.49-26.48-26.69-5.24-5.66-8.95-5.25-14,.21C41,45.27,31.63,54.08,22.51,63.18c-5.45,5.44-11.67,7.75-17.92,2.11-6.47-5.84-5.78-12.77.08-18.76C18.65,32.24,32.84,18.17,47,4.09A14.12,14.12,0,0,1,57.14,0Z"/><path class="cls-2" d="M14,97.82c-.09-5.38,2.22-8.26,4.9-11C28.44,77.26,38.08,67.74,47.54,58c6.67-6.84,12.72-6.15,19.15.43,9.71,9.93,19.69,19.6,29.58,29.36,4.3,4.25,6.72,9.21,2.15,14.26-4.73,5.23-10.43,4.18-15.25-.35-6.17-5.8-12.56-11.48-17.93-18C59,76.15,54.12,77.36,48.19,84S35.85,96.6,29.43,102.62C26.17,105.68,22,106,18,104.15A7.1,7.1,0,0,1,14,97.82Z"/><path class="cls-3" d="M58,116.45c-3.4-.16-5,1.69-6.71,3.33-4.16,4-8.18,8.14-12.48,12-3.08,2.76-6.73,3.57-10.07.43s-2.82-7,.06-10c7.29-7.58,14.74-15,22.4-22.21,3.66-3.44,8-3.7,11.82.1C70.08,107,77.12,113.91,84,121c3.36,3.46,5.13,7.61,1,11.61s-7.63.88-10.73-1.74c-3.88-3.28-7.37-7-11.12-10.45C61.4,118.82,59.44,117.52,58,116.45Z"/></g></g></svg>