<svg xmlns="http://www.w3.org/2000/svg" viewBox="0 0 499.39 580.41"><defs><style>.cls-1{fill:#e8e8e8;}.cls-2{fill:none;}.cls-3{fill:#fff;}.cls-4{fill:#e0e0e0;}.cls-5{fill:#e9e9e9;}.cls-6{fill:#e3e3e3;}.cls-7{fill:#f2f2f2;}</style></defs><title>Asset 14</title><g id="Layer_2" data-name="Layer 2"><g id="Layer_1-2" data-name="Layer 1"><path class="cls-1" d="M98.43,189.63c-.9-1.55-1.68-2.92-2.48-4.28-12.5-21.1-16.83-43.91-14.17-68.16a11.2,11.2,0,0,1,1.1-4.33c3.94-6.78,1.52-12-3.75-16.63-4-3.52-7.86-7.15-11.82-10.7C48.9,69,34.54,50.37,35.22,24,35.56,10.52,41.94,1.79,53.49.2a28,28,0,0,1,14.4,2.2C82.1,8.69,91.2,20.23,98,33.88q9.56,19.23,19.47,38.28c3.92,7.55,4.81,8.13,12.94,6.41a87.5,87.5,0,0,1,33.72-.69c16.16,2.89,28.8,12.22,39.46,23.93,13.56,14.9,26.29,30.56,39.31,45.94,5.49,6.48,10.57,13.34,16.38,19.51a14.11,14.11,0,0,0,8.84,4.24c8,.24,15.8.48,23.54,3.39,3.62,1.36,8.23.61,12.31.09a28.33,28.33,0,0,1,17.8,3.26,52.09,52.09,0,0,0,12.28,4.85c5.22,1.28,9.47,3.3,13,7.66a13.91,13.91,0,0,0,8.31,4.72,61.88,61.88,0,0,1,30.27,12c2.48,1.86,6.1,2.18,9.2,3.2,1.85.61,4,.82,5.51,1.87,4.94,3.37,9.5,7.34,14.54,10.53,5.28,3.33,10.66,7,16.52,8.81,10.47,3.27,16.53,9.83,19.45,20.13,3.59,12.63,6.95,25.38,11.5,37.68,6.54,17.66,5.6,34.75-2.51,51.33-2.44,5-6.73,9.46-11.09,13-7.24,6-8.43,7.42-5.16,16a220.31,220.31,0,0,1,15.06,79c0,5.49,2.62,9,7.21,12.17,12.73,8.81,23.82,19.35,30.25,33.84,7.34,16.54,2.38,32.17-13.85,40.09-9.18,4.47-19.28,7.21-29.17,10-10.73,3.06-21.29,5.94-31.07,11.85-15.82,9.56-33.49,10.35-51.34,7.74-8.5-1.24-16.58-1.29-25.11,1.06-15.85,4.37-31.92,8.48-48.16,10.82-28.58,4.1-57.34,5.81-86-.18-9.27-1.94-18.56-4.43-28-5.06-18.58-1.24-37.24-1.49-55.87-1.9-16.4-.36-31.92-4.22-47-10.4-8.14-3.33-16.48-6.25-24.89-8.84A77.83,77.83,0,0,1,17.47,525c-7.88-9.58-5-22.7,6-28.3,9.95-5.07,9.94-5.06,4.41-14.49-1.52-2.58-2.81-5.33-4.55-7.75-8.8-12.24-7.71-25.48-4.65-39.17,1-4.6.7-9.54.68-14.33,0-5.48-.66-11-.56-16.45A28.11,28.11,0,0,1,26.72,385c2.26-2.36,2.18-4.31,1-7.1-3.17-7.32-5.54-15-9.1-22.12A73.9,73.9,0,0,0,7.9,339.77c-8.59-9.61-10.39-17.06-4.34-28.45C6.83,305.17,7.7,298.94,8,292.17c.58-15.1,1.41-30.22,2.89-45.26.78-8,5-14.82,11-20.22,20.41-18.21,43.38-31.31,70.89-35.27a30.74,30.74,0,0,0,3.43-.66A14.35,14.35,0,0,0,98.43,189.63Zm192.66,62.08H307c-.72-4.58-3.32-6.2-6.51-5.54s-6.43,2.51-9.59,3.93a8.77,8.77,0,0,0,.4,1.74l-3.57.72c5.7,4.86,11.79,4.73,18,3.52a47.05,47.05,0,0,0-8.05-2.31C295.46,253.2,293.29,252.4,291.09,251.71Zm13.72,17.77c-1.26-2.09-2.37-5.82-3.82-6-4.8-.44-9.83-5.48-14.32-.34,4.27,1.56,8.67,3.21,13.09,4.76,1.67.59,3.42,1,5.14,1.43a4.58,4.58,0,0,0-.83,1.24c-.41,1.59-.71,3.21-1.06,4.82a43.25,43.25,0,0,0,4.56-.33c2.76-.48,5.49-1.13,8.23-1.73a9.59,9.59,0,0,0,1.38-.54l-.24-4.7ZM90.93,38.47l2.35,6.83,4.78-.84-3.25-9-4,3.1-1.56-3.14c-2.89-.72-4.42-1.15-6-1.46s-3.34-1.08-4.75-.68c-4.29,1.21-8.73,2.37-12.6,4.49-6.93,3.8-6.76,4.08-3.83,11.26.1.24-.13.61-.28,1.28L58.24,49a23.51,23.51,0,0,0,4.6,8.47C67.79,63.1,73,68.49,78.1,74c.68.73,2,1.76,1.88,2.19-2.06,5.35,3.57,5.43,5.67,7.88-2.16-12.27-13.57-18.42-20-27.89l1.09-.95,10,8.17-.69-5,1.18-.68c3,3.85,7.34,7.26,8.8,11.63,2.83,8.46,9.66,13.51,13.67,20.15L107,86.63,102.45,77l3.93,1.44,4.14-4.75c-1-1.85-2-6-3.44-6.15-5.55-.59-4-3.91-4-7.17,0-3.7,0-7.24-4.95-9.07C94,49.82,89.15,48,88.38,42,88,39.2,89,38.83,90.93,38.47Zm77.64,63.38h0c-1.74-.68-3.42-1.75-5.22-2-11.45-1.53-21.92,3.32-32.86,5.21-1.79.31-4.63,1.39-5.23.67-3-3.62-5.49-.75-6.82.89s-2.46,5.28-1.6,7c6.72,13.32,13.4,26.72,21.21,39.4,4.48,7.28,7.37,7.06,15.67,2.75l-9.91-1.17-.12-1.36,14.21-6.84-7.34-1.8.22-1.83h15c1.6-4.14,3.72-8.14,4.66-12.39,2-8.93,3.43-18,5-27,.91-5.32.09-6.19-6.63-6.8C172.7,99.21,170.58,100.52,168.56,101.85ZM276.86,415.2c2.08.14,4.32.85,6.22.33,10.37-2.87,20.64-6.07,31-9.11,14-4.12,28.71-6.72,41.91-12.65,17.69-7.95,34.21-18.5,51.29-27.83,8.18-4.47,16.31-9.08,24.77-12.95,25.25-11.55,34.77-38.45,22.5-63.6-3.18-6.53-5.32-13.57-7.92-20.39-1.27-3.35-2.48-6.72-3.72-10.08-1.2,11.28,3.52,21.39,4.5,32.37,1.17,13.18,3.91,25.84-1.07,38.68a9.27,9.27,0,0,0-.19,2.72c7.29-10.32,5-22.39,6.56-33.9a7.68,7.68,0,0,1,2.12,3.88,55.76,55.76,0,0,1-5.26,31.58,6.44,6.44,0,0,1-2.23,2.58c-2.75,1.71-5.63,3.22-7.82,4.45l2.6-45.92,1.91-.27a57.45,57.45,0,0,0-2.23-6.38c-3.19-6.55-7.69-12.31-6.73-20.62.72-6.21-1.79-12.22-9.76-13.75l6.89-6.36c4.57-.62,6.27,4.42,10,8.64-1.66-8.1-4.33-14.07-11.49-15.86S418.1,234.33,412.36,230a102.69,102.69,0,0,0-17.2-10.59c-4-1.89-8.75-2.11-13-3,1.67,5.6,9.32,11.9,14.38,11.42l.36,3.32,5.53-.5-2.5,5,4.87.36-1.1,4.65,4.43.94-3.35,5.88.18-.18-2-.41c-3.12,9.95-5.94,19.43-9.12,28.79a17.09,17.09,0,0,1-4.28,6.67c-11.65,11-24.65,20-40.66,23.18-24.94,5-50.4,7.37-74.56,16.25-4.87,1.79-11.07.1-16.64-.15-8.58-.39-17.25-1.92-25.7-1.12-9.54.9-18.87,4-28.33,5.86-14.32,2.85-28.36-1-42.07-3.57-21.66-4.08-43.34-9.22-62.82-20.4a32.48,32.48,0,0,1-8.95-7.52c-3.7-4.58-6.66-9.77-10-14.68-2-3-4.21-5.87-6-9-3.72-6.36-7-12.94-14.39-16.16-3.77-1.64-7-4.45-10.59-6.59a30.63,30.63,0,0,0-4.5-1.83l2.29-2.69C56,247,64.34,252.3,72.16,258.59l1-1.3-7.88-11.22.87-.84,7.15,4.6c-2.66-7.49-9.47-9.09-13.72-13.21l.91-1.6,12.21,5.34.67-1.1L63.21,231l1.21-1.64,10.16,4.94L76,232.69l-10.7-8.34.92-1.18,4.74.37c3.87-7.87,6.66.81,10.89.16l-7.53-7,1.14-1.27,9.12,5.37-2-7.43,6.29,2.85-1.38-7.07a28.56,28.56,0,0,0,3,1c1.46.27,2.94.43,4.42.63-.84-1.3-1.59-2.66-2.55-3.87a19.3,19.3,0,0,0-2.45-2.22l1.18-1.6,9.5,6.26.52-4.19,3.44,2.37c3.55-2.1,2.9-4.56.5-6.48a13.86,13.86,0,0,0-6.22-2.77A42,42,0,0,0,73,202.23Q52.1,212.89,32,225c-8.14,4.9-13.94,12.57-14.86,22.13-1.19,12.36-.95,24.86-1.24,37.3-.23,9.9.38,19.77-5.57,28.75s-3.17,18.36,6.16,22.18c-.08-.53,0-1.16-.25-1.4-7.18-6.6-4.86-13.59-1.94-21.43a73.92,73.92,0,0,0,4.2-21.34c.67-11.79-.29-23.68.42-35.47.32-5.24,2.66-10.51,4.82-15.44,1.15-2.62,4-4,6.69-1.83L25.35,253l1.05.27,8.29-9.48,1.27,1c-1.84,5.29-4.36,10.46-5.33,15.9-1,5.84-.69,11.94-.8,17.93-.1,5.64,0,11.29,0,16.93h1.86c0-4.86-.18-9.74.08-14.59.13-2.38.4-5.28,1.8-6.94,2.24-2.68,1.67-4.64.25-7.17-2.68-4.78-.6-12.37,4.58-16.11L38,256.58,42.65,254l-2.09,10.94,9-2.46-7,16.31c10.17-8.42,10.17-8.42,12.24-6.91-4.48,5.87-10.48,10.93-12.29,18.33s-2.3,14.82-3.38,22.24l1.68.22L45,291.33l1.71-.21c.44,1.61,1.48,3.32,1.22,4.8-1.52,8.47-3.32,16.89-5.1,25.31-.66,3.12-1.5,6.19-2.26,9.29l1.39.41c4.52-10,6.28-21.12,12.27-30.5a9.84,9.84,0,0,1-.16,5.49c-2.53,9.32-5.3,18.57-7.57,27.95a13.84,13.84,0,0,0,3,12.78c1.89-7.44-1.52-15.06,3.26-22.23,3.42,8.86-2.95,19,5.33,26.32l3.4-4.77,2.86,6,4.93-3.48-1.3,12.8c13.2,8.16,26.69,16.73,40.41,24.9,6.83,4.06,13.8,8.26,21.24,10.86,14,4.88,28.3,8.79,42.56,12.79,4.94,1.38,10.14,1.83,15.22,2.7l.35-1.49c-1.66-.48-3.31-1-5-1.43-6.8-1.63-13.66-3-20.41-4.86-5.3-1.45-6.66-5.16-3.84-9.33l2.69,4.79,1.26-.17c-.88-12.93,3.08-24.57,8.07-35.93l1.4.27-3,17.23,1.45.13c1.18-8.13,7.65-15.94.6-24.59-.4-.49-.21-1.65,0-2.41,1.53-5.28,2.93-10.61,4.9-15.72.42-1.1,3-1.38,4.54-2,.37,1.5,1.23,3.07,1,4.47-.55,3.33-1.61,6.58-2.47,9.86l1.61.41,4.84-12,1.4.42a548.42,548.42,0,0,0-9.3,59.56l2.05.31,6.83-39.55,1.37.17L184,401.21l.53.15,3-9.36.87.07.89,6.09.72,0,2.21-15.48,2,.26a76,76,0,0,0-.79,8c0,6.82-4.11,14.07,2.73,20.57l-5.77,1.34c8,2.23,16.17,4.31,24.36,4.59,15.24.52,30.25-1.49,44.45-7.65,9.54-4.14,19.56-5.31,29.84-4.58a25.4,25.4,0,0,1,4.25,1c-5.76,4.06-13.15-.31-18.25,4.91l2,4.22-5.32-2.58-11.86,4.7.7,1.86C266.17,419,272.18,420.16,276.86,415.2ZM83.36,436.12C71.54,425.16,59.64,414.3,48,403.2c-3.61-3.42-6.49-7.6-10-11.19-3.79-3.93-6.29-3.51-8.78,1.39a19,19,0,0,0-2.34,7c-.44,7-.3,13.94-.6,20.9-.26,6.12.37,12.6-1.45,18.26-3.58,11.1-.44,20.16,5.56,29.15,3.34,5,8.51,9,8.93,15.76a4.26,4.26,0,0,0,2.07,2.69c5.45,3.17,10.92,6.32,16.54,9.17,1.59.81,3.7.61,7,1.07-1.61-1.39-1.92-1.83-2.34-2-9.31-3.48-18.45-7.15-22-17.79-.29-.85-1.47-1.35-2-2.16-7.91-11.24-14.61-22.64-9.81-37.42,1.43-4.42,2.16-9.87.92-14.2C27.15,415.21,29,407.4,32,399.57c.62-1.63,2.94-3.81,4.25-3.67,1.56.17,3,2.48,4.25,4,.84,1,1,3.19,1.94,3.5,4.49,1.51,3.49,3.83,1.6,6.77-4.2,6.52-6.39,13.4-4.22,21.33.81,3,.17,6.31.55,9.43.54,4.57.56,9.46,2.32,13.56,3,6.88,7.13,13.24,10.79,19.82q3,5.47,6.11,10.94l1.53-.74c-.52-1.45-.95-2.93-1.57-4.34-2.7-6.08-5.57-12.09-8.14-18.23-.71-1.7-.62-3.75-.9-5.63l2.43-.76L68.38,491a6.62,6.62,0,0,0,.16-1.32c.42-9.73-4.77-17.49-9.09-25.51-5.33-9.89-11.14-19.58-10.79-31.49V452.1c-8.62-9.46-5.19-19.65-2.38-29.58-4.56-3.35-3.81-7.77,3.07-11.42L48,419.79l6.21-3.56.87,1L49.47,429c7.48-6.81,7.48-6.81,10.49-6.57v5.17L66,426.11c-7.53,13.14-5.56,25.71,4.68,30.84a40.35,40.35,0,0,0-5.07-8.61c-5.18-6.52-2.64-16.73,6-18.71-1.66,3.07-3.13,5.36-4.16,7.82-1.15,2.74-1.59,5.57,1.73,7.93,1.11-3.37,1.89-6.41,3.15-9.23.48-1.08,2.07-1.66,3.16-2.47a28.41,28.41,0,0,1,.75,3.74,16.52,16.52,0,0,1-.3,3.07L83.51,436l-5.06,14.6-1.34-.09-1.78-7.28c-2.58,7.14-1.14,11.75,3,12.93A54.38,54.38,0,0,0,80.15,463c1.25,3.08,3,6,4.28,9,4.11,9.51,2.84,18.93-.85,28.31-.81-6.68-.31-13.43-.94-20.07-.7-7.33-4.94-14.43-9.26-17.7.94,5,5,9.37,3.29,16.49l-8.51-14.94-1.42.72c.37,1.75.61,3.54,1.14,5.24,1.73,5.56,3.72,11,5.3,16.65.7,2.5,1.64,5.71.64,7.68s-4.27,2.62-6.68,3.93c2.6,1.17,5.36,2.28,8,3.64,4.57,2.35,9.42,4.39,13.53,7.41,8,5.9,15.71,12.29,23.41,18.64a35.58,35.58,0,0,0,24.49,8.35c2-.06,4.08.83,7.22,1.53l-13.27,5.89c-1.19-1.12-2.77-3.79-4.45-3.85-2.06-.08-4.2,2-6.5,3.28-.64-1.3-1.12-2.34-1.65-3.35-3.72-7.14-13.29-8-17.82-1.64-2.43,3.43-4.69,7-7,10.48L91.83,548c.41-7.58,8.17-11.49,10.65-18.65L97.2,530l-.52-5.67-1.56-.54L84.9,539.09l1,.74L92.44,533l1,1c-.94,1.51-2,3-2.78,4.54-1.27,2.47-1.84,6.49-3.69,7.17-2.22.82-5.5-1.11-8.29-2-15.07-4.59-31-6.84-44.62-15.52a4.24,4.24,0,0,0-1.59-.25,11.37,11.37,0,0,0,4.8,5.1c7.07,3.3,14.2,6.48,21.46,9.32,9.14,3.57,18.33,7.05,27.68,10,9.16,2.89,18.43,6.32,27.87,7.24,13.37,1.3,26.95.63,40.44.58,30.5-.1,60,8.17,90.2,10.62a70.31,70.31,0,0,0,11.41,0c10.08-.83,20.13-1.93,30.2-2.89,4.47-.43,9-.38,13.42-1.24,12.08-2.37,24-5.54,36.14-7.57,12.9-2.17,25.77-5,39.11-1.73,12.38,3,24.62.75,36.11-4.34,6.12-2.71,11.43-7.32,17.61-9.83,12.09-4.93,23.76-11.66,37.53-11.07a20.79,20.79,0,0,0,4-.55c16.65-2.57,26.89-23.38,14.69-37.1-5.2-5.84-10.34-11.76-15.89-17.26-4.09-4.05-8.8-7.48-13.77-11.64l-6.24,12.77-2.36-.56c-1-7.54,2.95-14.77,2.83-22.25-.13-8,.16-16-.53-24a190.36,190.36,0,0,0-3.68-23.15c-1.67-7.81-3.83-15.53-6.12-23.18-2.19-7.32-3.72-15-8.24-21.1l-4.2,7.67-1-.52,1.36,18.4-1.39.21c-.9-3.63-1.84-7.24-2.69-10.88-2-8.5-2-8.51-4.46-9.81l1,12.76-1.53.23-4.2-10.73-1.08.29,2.25,15.06-1.86.25c-.65-2.18-1.24-4.38-2-6.53s-1.55-4.17-2.34-6.25l-1.83.49v10.39l-1.06.14-4.37-7.82-1.75,0-3.58,12.18L393.16,384l-1,.1v15.31l-1.37.17-3.39-12.87-2,.36v15.32l-1.56.22-3.78-12-1.57.28v9.45l-1.24.39-4.5-7.23-3.9,8.25-3.62-2.82-2,8-3.49-4.32-6.57,7.28-3.3-4.88c-1.48,1.59-3.08,2.67-3.71,4.16s-.51,3.64-.8,6.37l-4.91-7.27-3.6,5.75-4.07-3.72-2.55,4.35c-5.06-2.61-19.48.19-24.24,4.67l-2.72-2.84-3,4.43c-2.24-.71-4.46-2.15-5.48-1.55-1.35.79-1.91,3.13-2.53,4.9a14.4,14.4,0,0,0-.31,3.47c-1.07,12.45-2.11,24.9-3.27,37.33a30.68,30.68,0,0,1-1.48,5.35l-.85-.35,2.51-48.36-1.47-.06c-2.07,13.51-.4,27.51-5.34,40.72.58-13.24,2.18-26.42.5-39.59l-1.42-.43-4.64,9.54L274.34,424,270,431.53,267.19,427l-3.55,9.52c-1-2.84-1.32-4.68-2.27-6.1-.84-1.26-2.38-2.06-3.61-3.07a38.18,38.18,0,0,0-2.6,3.68,48.9,48.9,0,0,0-2,4.51,10.78,10.78,0,0,1-2.09-5c-.33-1.44-.71-2.86-1.08-4.29l-1.18.08-2.49,8.78-1.14-.39-1.48-9.84-1.24,0L240,433.11l-1.14.1-1.93-7.47-1.13-.3-3,14.64-.91-.13-1.24-12.63-4.08,7.89a17.2,17.2,0,0,1-.73-2.4c-.2-2.56.58-5.63-3.6-5.79-3.85-.15-3.95,2.6-4.54,5.27a75,75,0,0,1-2.35,7.25l-2-.43.77-12.82-1.29-.13-3.35,9.51-2.08-.45c.24-2.48.6-5,.67-7.45a17.94,17.94,0,0,0-.72-3.84c-1,.9-2.47,1.61-3,2.75-1.26,2.66-2.09,5.53-3.1,8.31l-1.05-.28-.81-8.5-4.11,6.14-1.61-7.25-.65,0-3.58,26.72-2.08-.21a40.76,40.76,0,0,1,0-4.6c.79-7,1.8-13.88,2.43-20.84.13-1.46-1-3-1.58-4.57-1.12,1.34-2.71,2.51-3.26,4.05a84.75,84.75,0,0,0-2.26,9.33l-1.71-.16V421.3l-1.33-.15-4,13.79-1.54-.3,1.67-15.19c-6.09-1.42-6.1-1.39-7.44,4-.52,2.07-1.19,4.11-1.8,6.16l-1.11-.23.71-12.85-2.06-.25-4.63,15.22-1.55-.39L159,416.56l-1.89-.3c-1,4.09-1.94,8.18-2.94,12.26s-2,8-3,12l-1.88-.4,4.35-26.85-2.84-.54-4.84,20.14-2-.33c.63-5.31,1.44-10.61,1.81-15.94.13-1.84-.82-3.76-1.27-5.64-1.24,1.34-2.83,2.51-3.64,4.07a48.48,48.48,0,0,0-2.43,7l-1.27-.31V407.84l-1.74-.46-4.7,10.9-.83-.24V404.46l-5.68,5.13-.63-5A43,43,0,0,0,119,416.13c-.16.57,0,1.76.19,1.81,5.24,1.28.64,4.35,1.86,6.73-8-3.57-8.19-7.87-1.68-23l-4.09-1.79L110.61,416l-1.78-.36,1.93-19.4-5.21,7-2.49-4.5-3.49,4-1.15-.45,2.13-11.42-1-.41-5.44,8.08-1.72-.75,3-10.3-1.33-.71L85.4,400.84l-2.12-1.17,6-14.19c-10.14,7.9-7.48,20.71-12.41,30.65-1.8-10.91-1.17-21.41,3.61-31.51-6.68,5.54-8,13.48-10.26,21.09-3.4-9.9,2.31-17.67,6.57-25.77l-1.63-.78-8.3,11.62c-3.26-7.8,4.78-10.58,4.66-16.59-5.85,1.37-7.61,5.64-8.84,10.38s-2.42,9.37-3.85,14.9l-13.28-12-1.08,1.19,33.7,36.25,1.92-.74L83,405.68l1.66.27c1.61,7.69-3.52,15.74.93,24.29,2.58-6.11-.31-12.85,5.14-17.88,0,5.35.28,10-.08,14.54-.4,5.11,1.48,8.27,5.94,10.93,7.84,4.69,15.33,10,22.82,15.24,1.67,1.17,2.75,3.19,4.11,4.82l-1.3,1.46-31.74-19.1-7.1,17.36-1.5-.54c-1.18-7.12-.1-13.77,5.56-19.6C85.54,436.81,84.48,436.45,83.36,436.12Zm17.83-317.26,1.82-2.59,1.62.63-1.31,4.51-1.6.15,10.18,14.92,2.37-3.35,4.54,8.26h-4.64l2.77,3.83,5.94-4.95c.35.93.23.48,0,.08-4-7.83-8.32-15.56-12.07-23.53-2.73-5.79-1.87-9.52,3.36-13,3.77-2.54,8.25-4.19,12.6-5.7,12.16-4.24,24.55-7.4,37.62-6.89,8.4.33,15.33,3,20.86,9.86,11.59,14.41,23.77,28.34,35.51,42.63,10.58,12.87,20.82,26,31.41,38.87,2,2.44,5,6.77,7.2-.28.12-.39,1.86-.28,3.56-.5a68.78,68.78,0,0,0-4.42-6.62c-20.36-23.79-40.88-47.45-61.15-71.32-7.46-8.78-16.3-15.64-27.39-18.32-17-4.11-34.3-4.94-51.14,1A61,61,0,0,0,102.56,95C94.19,101.32,94,110.95,101.19,118.86Zm115.15,39.82-1.18,1.15-7-5.34-1,5.18c-4.09-6-12.6-4.82-14.37-12.8h4.08l-3.34-4.52-2.34,4L179.37,131.1l3.65-2.46-4.48-5.06c-3.9,8.59-7.46,16.25-10.78,24-.4.93.48,2.4.86,4l3.71-3.19,5.14,6.62-.76.83-3.77-1.35,3,6.89-2.14,1.81L165.65,151c-1.48,5.25,3.84,14.05,10.63,20.2l2.15-5.83,6,3.72-2.29-5.81c5.17-.38,1.66-3.77,1.91-6.19l4.09,1.17.8-.89-13.29-19,1.57-1.11c4.77,6.06,9.59,12.09,14.27,18.21.8,1,1,2.52,1.55,3.8l-4.92.88,6.42,7.3,4.35-8,3.58,2.63c-3.49,4-2.28,6.41,7.72,15.94l3-2.74c-.51-2.61-.94-4.68-1.31-6.76-.41-2.29-.75-4.6-1.23-7.53l11.81,12.39,1.26-1.19-5.12-8.05,1.71-1.27,16.52,20.86,1.32-1.05-5.8-9.64,1-.72,4.89,2.62.9-.86-40.74-53.21-1.32.9,4.48,9.44-8.16-6.55-1.35,1.19ZM207.89,261l1.72-.61L133.78,154.6l-2.5,6.08-3.89-2.26-1,.87,75.85,106.13ZM84.11,19.41c-5.42-4.54-9.65-8.24-14-11.72A18.15,18.15,0,0,0,49.12,6a3.76,3.76,0,0,0-1.74,2.71c.17,3.93-1.23,8,1.66,11.74.85,1.08.49,3.13.6,4.74.13,1.83.17,3.66.26,5.5,1.8-.58,3.8-.83,5.37-1.79C62,24.8,68.92,21.39,77.17,21.61,79,21.66,80.83,20.49,84.11,19.41Zm61.46,199.4c1.91-1.3,3.65-2.51,5.43-3.67.84-.54,1.77-1,2.66-1.44-.56-.7-1.13-2-1.69-2-1.07,0-2.14.73-3.61,1.32-6.93-1.88-6.47-10.13-10.83-14.73a1.37,1.37,0,0,1,0-1.34c2.58-2.39.5-4.21-.75-6-3.56-5.22-7.13-10.43-10.86-15.53a41,41,0,0,0-4.41-4.47c4.4,8.35,0,10.93-5.89,11.83l1.75,3.68,2.78-3.06Zm229,41c-2.6-1.46-4.85-2.9-7.25-4s-5.25-2.47-6.42,1.52c-1,3.37,0,5.73,3.81,6.75,1.93.53,3.66,1.85,5.46,2.84,1.46.8,2.89,1.65,5.46,3.11l.74-8.77c2.41,1.7,4.59,3.5,7,4.89a6.33,6.33,0,0,0,8.84-1.84c1.18-1.6,2.33-4.71,1.57-6C390.93,253.67,377.75,254.67,374.58,259.83Zm-323,267.25,1,1.15,20.1-15.31,1,1.14-2.38,5.11,4.9-.55-1.41,4.23,5-.77L69.16,534.8,71,536.48l19.13-17.1-.82-1.23-7.2,3.42,1.65-7.33c-3.35-1.71-5.32-3.06-7.5-3.73-1.79-.55-4.4-1.12-5.64-.25-5,3.52-9.69,7.51-14.34,11.5A49.24,49.24,0,0,0,51.58,527.08ZM90.09,28.92c-11-10.46-38.08.35-41.61,14.21,6.29-3.33,11.33-6.38,16.67-8.7a75.93,75.93,0,0,1,13.25-4C81.85,29.63,85.45,29.49,90.09,28.92ZM382.89,236.53l2.25-3.29,1.59,4.12,5,.63c.38-4.78-1-7.77-4.7-9.59-4.55-2.25-10.57-1.38-13.88,1.65l-19.89-6.74-.52,1.5c5.44,8.73,15.56,8.52,24.6,13.5l-2.57-6.63.6-.71ZM251.43,263.85c2.94.54,6.21.58,9,1.78,4.21,1.83,8.08,4.46,12.53,7,1.2-7.71-3.72-14.15-11.93-17.31-7.93-3-9.88-2.89-12.62,1.26l4.14.77ZM232.7,246.4l6,4.08c.66-1.9,1.84-3.78,1.9-5.7.24-7.62-4.34-13.13-9.29-18-3.27-3.21-7.6-1.43-8.72,3.22-1.37,5.63-.93,11.16,2.27,16.14l1.49,0V230.78l1.72-.55,4,9.27,7,3Zm98.36,58.69c4.65-.74,8.6-1,12.27-2.12,1.67-.52,4-3,3.88-4.23a7.31,7.31,0,0,0-4-4.78c-8-3.19-16.24-2.63-24.32,0-1.44.47-2.62,1.82-3.78,2.92-.13.13.79,1.85,1,1.8a11.58,11.58,0,0,0,3.83-1.3c5.4-3.25,17.08-2.39,20.78,2-3.44-.49-6.53-1.08-9.64-1.3-1.52-.11-4,0-4.44.86-.74,1.44-.2,3.54-.2,5.36l1.2.35,4.4-4.92.6.47Zm-95.6-98.65-6.67-7.21c7.89-.51,10,7.25,16.18,9.67-.17-3.15.49-6.45-.65-8.91-2.93-6.35-8.87-8.25-16.59-6.17-6,1.63-6.63,3.15-3.25,8.15,1.66,2.46,3.4,4.87,5.11,7.3Zm24,24.61,13-4.63.6,1.21-6.9,4.87,4.06,3.15c3.31-2.88,6.44-5.59,9.56-8.32.88-.77,2.23-1.44,2.46-2.39.34-1.37.45-3.63-.36-4.32-5.82-4.93-15.37-2.88-18.86,3.81C262.15,226.19,261.2,227.91,259.51,231.05ZM183.72,202.6c5.71,9.44,17.15,6.3,23.82,14.38l-17.27-4.3-.75,2.29c4.57,2,9.07,4.16,13.73,5.88,4,1.48,6.28-.4,5.47-4.56a14.53,14.53,0,0,0-2.75-5.7C200.7,203.61,193.07,202.77,183.72,202.6ZM307.38,232c-2.14-1.45-4.64-4.56-6.71-4.3-6.47.83-12.81,2.83-19.1,4.71-.76.23-.9,2.52-1.32,3.85,1.3.17,2.7.71,3.9.43,4-.95,7.95-2.38,12-3.23,1.47-.31,3.16.48,4.76.76l-.19,1.53-14,3.17C293.88,244.27,298,243.09,307.38,232Zm12.3-28.52c-21.31,9.62-21.31,9.62-20.84,13.56l3.69-1.9,2.59,4,1.52.25,2.28-7.84c4.95-4.23,5-4.19,13-2a3.45,3.45,0,0,0,3-.58,3.91,3.91,0,0,0,.22-3.16c-1.57-4.72-5.67-7.27-10.88-7-6.63.36-12.36,3.85-13.7,8.65,3.14-1.82,5.92-3.89,9-5.11S316.07,200.48,319.68,203.48Zm4.07,78.8.4-1.31,9.91,2.8.83-1.38c-1.54-1.12-2.92-2.79-4.64-3.26-5.72-1.58-11.1-5.21-17.68-1.57-2,1.1-5,.52-4.88,3.8.15,3.92,3.08,5.85,6.77,4.64,4.17-1.36,8-1.6,11.79,1.25.94.71,2.87.11,4.35.11l0-1.65ZM90.51,112.2c-5.69,17.15,0,55.55,11.26,68.7-1.39-4-2.25-7-3.43-9.92a107,107,0,0,1-7.59-44.41c.08-2.65,1.4-5.25,2.15-7.88l1.46-.05Zm126.3,197c2.94,4.29,6.86,5.34,11.11,5,3-.23,4.53-2.31,3.18-5.29-2.55-5.61-6.5-10-12.44-12.11-.82-.29-2.46.53-3.11,1.33a3.22,3.22,0,0,0-.1,3.07c1.78,2.38,3.9,4.5,6.35,7.23Zm60.18-7-2.1-10.13c4.33,1.77,8.05,2.48,10.7,4.57,3.82,3,6.87,3,11.64-1-2.77-1.45-4.73-3-6.94-3.53a59.14,59.14,0,0,0-12.7-1.68,21.71,21.71,0,0,0-8.71,2.23c-1.09.5-2.11,3-1.79,4.21s2.39,1.81,3.77,2.54S273.85,300.78,277,302.19Zm-54.56-12.13L235,295.44l3-3.63c.14,8.09,5.57,9,10.89,10.23.67-3.19-2.5-9.83-4.49-9.11-3.46,1.24-4-1.4-5.48-2.76C234,285.64,228.88,285.3,222.43,290.06Zm31.18-11.6c3.74,3.79,6.49,6.74,9.45,9.47.69.64,2.59,1.07,3,.66a4.4,4.4,0,0,0,1.3-3.44c-2.15-8.84-13.39-15.45-20.13-12.23l4.08,1.59-.26,1.34-7.3-.58C247,280.66,251.08,279.43,253.61,278.47Zm85.71-61.06c2.14,6.41,2.14,6.41,11.13,3.43-3-6.42-12.45-11.09-19.48-9.51-.82.18-1.5.94-3,1.91l4.22,2.15-.77,1.26-6.34,1.14C330.69,220.88,335.06,219.69,339.32,217.4Zm-51.24-13.12c.27-4.88-1.31-7.85-5.28-9.54-8.47-3.61-12.41-3.27-16.12,1.72l11.11,9.35.57-.73-3-6.66Zm26.81-16.57-5.22,1.51.55,1.68c2.65-.82,5.36-1.5,7.94-2.51,1.36-.53,3.36-1.49,3.53-2.51.21-1.27-.84-3.17-1.93-4.15-6.47-5.82-17.42-5.59-24.33.94C303.73,177.91,308.77,183.8,314.88,187.71Zm-73.52,78.7c-8.26-3.94-18-2.67-21.4,2.21a66.08,66.08,0,0,0,6.4,2.56,52.25,52.25,0,0,0,9.51,2.15C241,273.82,238.48,268.34,241.37,266.41Zm22.06-19.74c5.91,9,13.5,5.88,21,2.8C280.68,242.81,268.56,241.29,263.42,246.68ZM40.55,498.53c-7.88-.27-16.64,5.83-18.16,11.74s1.65,11.54,8.45,15.08c-1.36-3.24-2.57-6.28-3.9-9.26-1.67-3.75-1-6.5,2.63-8.87S36.44,501.82,40.55,498.53Zm328.32-257c2,8.57,8.63,13.12,16,11.38,3.57-.84,3.62-2.25,1.58-4.18l-4.72,1.2-.39-1.42,3-1.52C380.12,241.94,374.72,241.27,368.87,241.53ZM22.46,340c6.07,8.14,32.2,19.64,42.65,19.67Zm143-60.36c1.48.88,2.71,1.28,2.7,1.64-.23,5.71,4,4.75,7.44,5.24a28.19,28.19,0,0,1,7.21,1.68c2.85,1.23,5.45,1.49,6.6-1.57.27-.71-2.82-3.06-4.67-4.11-4.8-2.7-11.36.57-15.65-4.4C168.92,277.91,167.45,278.8,165.49,279.64ZM94.07,243.93l-.77-1.25c-4.29.64-8.42,2.21-10.9,6-.75,1.14.53,5.15,1.95,5.93,4.92,2.71,8.65.9,11.27-4.73l-3.53-3Zm232.62,20.41c2.57,2.28,4.29,3.94,6.15,5.42a8.32,8.32,0,0,0,3,1.56,33.26,33.26,0,0,0,6.82,1.24c.94,0,1.93-1.15,2.9-1.78-2.74-2.63-5.06-6.3-8.33-7.62C333.77,261.75,328.87,260.53,326.69,264.34ZM180.34,354.58l-2.51-.24c.22,16.73-8.81,32.58-4.58,49.61Zm5.94-40.25c-3.18-2.2-5.47-3.08-6.65-4.75-3.24-4.62-5.58-5.57-11.09-3.39,1,.9,2.05,1.75,3,2.62s1.9,1.76,3.39,3.16l-4.14.71c2.27,6.91,4,8,9.63,6.14l-2.26-3.41Zm178-29.75,2.29-3c-5.85-4.13-16.64-4.1-21.36.18-2,1.85-3.54,4.5-1.3,6.84l8-7.54,1.79,3.47ZM115.31,154.22l1.15-.76-20.3-33C94.69,125.55,106.77,145.44,115.31,154.22Zm54.56,16.5-1,.73c0,.45-.07,1,.16,1.34,5.16,6.9,10.27,13.85,15.6,20.62,2.52,3.2,5.8,3,10.07.88-2.05-1.94-4.18-5-5.17-4.71-5.27,1.76-6-2.82-8.15-5.19C177.44,180,173.71,175.29,169.86,170.72Zm160.93,55c-4.85-5.66-17-6.31-22.52-1.47.06.15.13.43.18.43,3.22-.12,6.44-.27,10.38-.45L316,226.45C320.78,230.21,323.84,230.06,330.79,225.73ZM352,239.92l.78-1.73c-4.88-2.47-9.84-4.81-14.62-7.46-4.18-2.32-5.51-.37-6.29,3.73C338.62,236.81,344.45,241.71,352,239.92ZM256.13,222.1l1-1.08c-3-4-6.6-7.2-11.81-8.32-4.87-1-7.82-.26-10.51,3.09ZM124,278.47l7.23-1c.51,1.14,1,2.85,1.32,2.83,4.23-.24,8.45-.74,13.35-1.23C138.46,270.65,127.46,270.63,124,278.47Zm235.84-70.6c-4.52-5-11.65-6.91-16.16-4.18-1.3.79-1.88,2.76-2.78,4.19,1.33.63,2.7,1.88,4,1.79C349.7,209.33,354.53,208.55,359.8,207.87Zm-32.94-13.54c3.59,5.08,12.84,6.77,18.18,3.56C340.86,192.18,333.38,190.61,326.86,194.34Zm35.57,23.06c3.76-.49,7.25,5.67,10.87-.12l6.65,5.33c-.59-5.57-3.21-8.06-7.19-10.23C366.48,208.95,366,215.9,362.44,217.4Zm-323.94,61-2.78-.45c-.25,6.67-.22,13.35-.81,20-.61,6.92-1.81,13.79-2.76,20.68C39.11,305.81,35.84,291.73,38.49,278.4ZM291,284.67c1.67-6.23.91-7.85-3.82-9-4.36-1-9,1.23-9.62,4.17Zm-192.6,8.62,1.9-.05c.17-1.59.91-3.41.39-4.72-1.76-4.46-9-7.6-15.45-6.08Zm-56-277c-5,9.79-4,23.07,1.78,25.13ZM387.08,274.54c-4.35-2.68-8.44-1.81-12.34.37-1.12.63-1.81,2-2.7,3.09,1.37,1,2.79,2.94,4.1,2.87C380.57,280.64,385.22,280.15,387.08,274.54Zm-62.35-15.61c2.55.24,4.09.79,5.35.41,1.7-.52,3.17-1.75,4.74-2.68-1.13-1.44-2-3.44-3.44-4.21-4.94-2.57-10.79-.94-15.24,4L329,255.32l.1.95ZM214,250.8c0,2.67-.42,4.5.09,6,1.1,3.33,6.41,3.32,7.72,1.26l7.73-.63.14-2.21Zm22.94-31.59-1.47,2.85c2.66,1.81,5.34,3.62,8,5.44,4.46,3.06,5.65-2.11,8.58-2.9l.07-1.35ZM146,282.87c2.38,2.43,4,5,6.34,6.29,6.09,3.51,5.63-4.07,10.25-6.33C156.57,282.84,152.2,279.1,146,282.87Zm-21.41,8.76,17.19,15.26C145.19,300.65,138.06,296.37,124.62,291.63Zm68.17-2h18.74C205.67,282.64,200.15,283.54,192.79,289.6Zm-80.51-6.85c-3.86-5.54-13.9-8.58-23-6l12.51.74-2.48,2.64C103.78,281.67,107.14,286.88,112.28,282.75Zm146.24-45.69c-2.75-1.15-5.3-2.83-8-3.07-1.4-.13-3.44,2-4.39,3.61-.43.73,1.09,3.79,1.67,3.77C251.37,241.25,255.61,242.81,258.52,237.06Zm-49.7-4.12c3.5-2.63,7.08-4.9,10.12-7.74,2.18-2,.22-3.17-1.82-3.53C211.34,220.66,206.73,226.51,208.82,232.94ZM66.6,506.25l-1.44-.75-19,17.17L47.3,524a8.19,8.19,0,0,0,1.65-.73c4.87-3.59,9.88-7,14.47-10.93C65,510.92,65.57,508.3,66.6,506.25Zm205.76-195,.49-2.23-8.75-2.58.72-4.2-6.37,3.05.56,1.39h-4.81l-.13,1.57Zm6.41-95.83c-1.7-5.86-7.3-8.52-11-5.64a4.17,4.17,0,0,0-1.33,2.83c0,.57,1,1.64,1.72,1.74C271.51,214.81,274.91,215,278.77,215.41Zm-5.42-39.78L271,177.17c.69.72,1.26,1.81,2.09,2.08a113.23,113.23,0,0,0,11,3.09c1.17.26,2.56-.43,3.84-.68-.71-1-1.23-2.55-2.15-2.84C281.82,177.59,277.83,176.74,273.35,175.63ZM108,242.36l13.84-5.08C115,232.91,109.82,234.92,108,242.36Zm207.55.06.9,1.4c2.2-.76,4.71-1.11,6.48-2.44,1-.79,1.43-3.23,1.16-4.75-.2-1.11-2.2-2.91-2.95-2.7-1.32.36-2.56,1.83-3.35,3.13A35.78,35.78,0,0,0,315.53,242.42ZM171.87,297.27c4.32,2.33,7.57,4.37,11.08,5.77,1,.4,2.75-1.11,4.16-1.74a40.9,40.9,0,0,0-3.78-2.72c-.8-.46-2.34-.2-2.7-.78C178.43,294.24,175.87,295.8,171.87,297.27Zm90.41-98.17c-3.79-2-7.24-2.19-10,.82-.48.52,1.15,4.48,2.37,4.82C258.78,205.9,260.65,202.85,262.28,199.11Zm-41.47,76.65-1.82.79c.35,2.53-.13,6.46,1.24,7.28,2.47,1.47,6.24,2,9.27-1.83Zm65.28-64.39L285,213l6.08,4.73c1.38-2.08,4.42-5,3.86-6.09C292.48,206.82,289.13,211.21,286.09,211.36Zm-181.62,11.8.73,1.23,13.54,1,.57-2.64c-2.9-1-5.77-2.67-8.7-2.78C108.6,219.94,106.51,222,104.46,223.16ZM356,251V246.5c-5.72-1.15-10.09.91-11.2,5.46ZM190.18,220.18c2.08,7,4.33,9,9.27,8.75l1.57-4.4ZM67.37,76,53.57,58.43l-1,.83C55.51,66.46,59.87,72.53,67.37,76ZM116,164.52c-1-8.87-6.17-9.83-11.9-10C104.14,162.44,112.61,159.12,116,164.52Zm157.86,18.11-.63,1.42c3.45,6.62,8.86,8.59,13,3.86Zm-61.09,122.3a54,54,0,0,0-8-.35c-.32,0-.94,3.56-.48,3.82a77.51,77.51,0,0,0,8.5,3.77l.89-2.12-4.56-2.31ZM43.09,385.3l1.15-.71-9.79-15.35C33.66,376.85,38.09,381.25,43.09,385.3ZM290,193c5.09,5.53,7.68,6.14,13.61,3.44C300.13,192,295.52,191.85,290,193ZM189.67,270.19c-3.87-.68-6.74-1.53-9.6-1.53-1.22,0-2.67,1.63-3.53,2.86-.33.47.5,2.49,1.2,2.75a5.87,5.87,0,0,0,3.85-.19C184,273.15,186.25,271.86,189.67,270.19ZM58.18,450.75V430.89C54,436.6,54,444,58.18,450.75ZM200.74,199h15.08l.38-1.57c-2.47-1-5.06-2.92-7.37-2.62C206.1,195.18,203.59,197.46,200.74,199Zm-55.17,62.06c.71-6.51-3.34-8.74-11.31-6ZM368,287.14l.56,1.9c2.57-.29,5.26-.22,7.66-1,1.15-.38,1.75-2.41,2.6-3.7-1.44-.25-3.06-1-4.27-.63A43.71,43.71,0,0,0,368,287.14ZM212.77,210.3,211,213l7.94,7,2.57-6Zm-63.22,86.64c4.82,6.45,6.15,7.76,8.34,7.9a8,8,0,0,0,2.5-.68c-.32-1-.35-2.44-1-2.78C156.56,299.88,153.54,298.7,149.55,296.94ZM121,165.07l5.8,5.36,1-.81-5.7-8.31-5.54,4.57,3.28,4.68Zm-16.6,100.56.27-1.79-10.23-5.11c.31,2.79.17,5.94.75,6.08C98.11,265.51,101.27,265.44,104.36,265.64Zm-24.21,1.75-.22,1.79,11.49,1.35.19-1.59C88.09,266.08,84.4,264.53,80.15,267.38ZM57.22,368.31c-5.57,3.36-7,9-4.34,14.24ZM199,180.8l1.68-1.38-11.54-13.87-1.47,1.21ZM36.75,454.27c-.29,5.24,1,9.84,5.23,12.89l1.54-.83Zm224-139.61c6.81,4.1,10.91,4.14,13.82,0Zm78.88-124.44c-3.18-4.66-8.26-5.24-13.14-1.84ZM151.15,94.65l0,1h15.44v-1Zm293.2,225.08.62,0V297.93l-.62,0ZM36.7,325.15c-3.67,9.47-3.67,9.47,0,13.76ZM338.63,242.3l-10.07.71.11,1.49C332.11,246.37,335.55,248.19,338.63,242.3Zm-42.29,28.57c-5-5-9.73-5.94-13.89-2.95ZM88.15,527.75l-1.16-1c-2.26,4.36-7.73,6.65-8.64,11.88l1.51,1ZM353.6,228.69,352,230.26l9.68,9.84,1.4-1.46ZM63.26,63.8l-1,.87L74.95,76.9l.58-.59ZM206.35,280.1l.94,1.77c2.06-.9,4.18-1.69,6.14-2.77.54-.3.58-1.47.86-2.25-.85-.24-2-.94-2.49-.64A61.48,61.48,0,0,0,206.35,280.1Zm15.25-74.95h-8.3c.28,1,.39,2.76.86,2.87C216.61,208.56,219.56,210.22,221.6,205.16Zm142-2.44c1.26,5.33,4.55,6.44,9.23,4.7ZM65.33,371.15c-4.79.43-7.65,5-6.89,10.12Zm152-184.81-5.48-.1,1.92,6.53,1.18-.39Zm-19.43-43.59,1.52-1.12-8.36-11.41-1.62,1.19Zm22.41,103.78,1.66-.62-3-8.5C214.37,242.48,218.29,244.22,220.32,246.54Zm-12,3,.44-9.61-1.85.06C208.68,242.95,201.32,246.19,208.33,249.56ZM282,258.5l.41-2.52H273.2l-.17,1.49ZM130.43,254l.58-1.73-6.55-4.12c-.34,1.91-.88,4-.7,4.05A68,68,0,0,0,130.43,254Zm72.73-70.79-1.81,1.42,5.18,7.37,1.91-1.34ZM155.7,220l1.8,2.5,5.7-2.21L160.62,217Zm-22.65-4.89-1.73,1.31,5.87,8.63,1.6-1.06Z"/><path class="cls-2" d="M83.41,436.09l4,1.37c-5.66,5.84-6.74,12.49-5.56,19.6l1.5.54,7.1-17.36,31.74,19.1,1.3-1.46c-1.35-1.63-2.43-3.64-4.11-4.82-7.49-5.25-15-10.55-22.82-15.24-4.46-2.67-6.34-5.82-5.94-10.93.36-4.57.08-9.19.08-14.54-5.45,5-2.56,11.77-5.14,17.88-4.46-8.55.68-16.6-.93-24.29L83,405.68l-2.91,18.44-1.92.74-33.7-36.25,1.08-1.19,13.28,12c1.43-5.53,2.63-10.22,3.85-14.9s3-9,8.84-10.38c.12,6-7.92,8.78-4.66,16.59l8.3-11.62,1.63.78c-4.27,8.09-10,15.87-6.57,25.77,2.26-7.6,3.58-15.55,10.26-21.09-4.79,10.09-5.41,20.6-3.61,31.51,4.93-9.94,2.27-22.75,12.41-30.65l-6,14.19,2.12,1.17,8.68-14.07,1.33.71-3,10.3,1.72.75,5.44-8.08,1,.41-2.13,11.42,1.15.45,3.49-4,2.49,4.5,5.21-7-1.93,19.4,1.78.36,4.66-16.08,4.09,1.79c-6.51,15.09-6.27,19.4,1.68,23-1.22-2.38,3.38-5.45-1.86-6.73-.21-.05-.35-1.24-.19-1.81a43,43,0,0,1,4.55-11.48l.63,5,5.68-5.13V418l.83.24,4.7-10.9,1.74.46v13.84l1.27.31a48.48,48.48,0,0,1,2.43-7c.81-1.57,2.4-2.73,3.64-4.07.46,1.88,1.4,3.8,1.27,5.64-.37,5.33-1.17,10.63-1.81,15.94l2,.33,4.84-20.14,2.84.54-4.35,26.85,1.88.4c1-4,2-8,3-12s2-8.17,2.94-12.26l1.89.3-1.13,14.56,1.55.39L164,416.28l2.06.25-.71,12.85,1.11.23c.6-2.05,1.28-4.08,1.8-6.16,1.34-5.39,1.35-5.42,7.44-4l-1.67,15.19,1.54.3,4-13.79,1.33.15v13.47l1.71.16a84.75,84.75,0,0,1,2.26-9.33c.55-1.54,2.14-2.71,3.26-4.05.56,1.53,1.71,3.11,1.58,4.57-.63,7-1.64,13.89-2.43,20.84a40.76,40.76,0,0,0,0,4.6l2.08.21L193,425l.65,0,1.61,7.25,4.11-6.14.81,8.5,1.05.28c1-2.78,1.84-5.65,3.1-8.31.54-1.14,2-1.84,3-2.75a17.94,17.94,0,0,1,.72,3.84c-.07,2.49-.43,5-.67,7.45l2.08.45,3.35-9.51,1.29.13-.77,12.82,2,.43a75,75,0,0,0,2.35-7.25c.59-2.67.69-5.42,4.54-5.27,4.18.16,3.4,3.23,3.6,5.79a17.2,17.2,0,0,0,.73,2.4l4.08-7.89,1.24,12.63.91.13,3-14.64,1.13.3,1.93,7.47,1.14-.1,2.54-8.24,1.24,0,1.48,9.84,1.14.39,2.49-8.78,1.18-.08c.36,1.43.75,2.85,1.08,4.29a10.78,10.78,0,0,0,2.09,5,48.9,48.9,0,0,1,2-4.51,38.18,38.18,0,0,1,2.6-3.68c1.23,1,2.77,1.8,3.61,3.07.95,1.42,1.26,3.26,2.27,6.1l3.55-9.52,2.82,4.54,4.33-7.49,2.12,7.84,4.64-9.54,1.42.43c1.68,13.16.09,26.35-.5,39.59,4.94-13.21,3.27-27.21,5.34-40.72l1.47.06-2.51,48.36.85.35a30.68,30.68,0,0,0,1.48-5.35c1.17-12.44,2.2-24.89,3.27-37.33a14.4,14.4,0,0,1,.31-3.47c.62-1.77,1.18-4.11,2.53-4.9,1-.6,3.24.84,5.48,1.55l3-4.43,2.72,2.84c4.76-4.48,19.19-7.28,24.24-4.67l2.55-4.35,4.07,3.72,3.6-5.75,4.91,7.27c.29-2.73.1-4.74.8-6.37s2.23-2.57,3.71-4.16l3.3,4.88,6.57-7.28,3.49,4.32,2-8,3.62,2.82,3.9-8.25,4.5,7.23,1.24-.39v-9.45l1.57-.28,3.78,12,1.56-.22V387l2-.36,3.39,12.87,1.37-.17V384.06l1-.1,3.18,5.67,3.58-12.18,1.75,0,4.37,7.82,1.06-.14V374.78l1.83-.49c.79,2.08,1.63,4.14,2.34,6.25s1.31,4.35,2,6.53l1.86-.25-2.25-15.06,1.08-.29,4.2,10.73,1.53-.23-1-12.76c2.5,1.31,2.48,1.31,4.46,9.81.85,3.64,1.79,7.26,2.69,10.88l1.39-.21-1.36-18.4,1,.52,4.2-7.67c4.52,6.11,6,13.78,8.24,21.1,2.29,7.65,4.45,15.37,6.12,23.18a190.36,190.36,0,0,1,3.68,23.15c.69,7.94.4,16,.53,24,.12,7.48-3.83,14.71-2.83,22.25l2.36.56,6.24-12.77c5,4.16,9.68,7.59,13.77,11.64,5.55,5.5,10.69,11.41,15.89,17.26,12.21,13.71,2,34.52-14.69,37.1a20.79,20.79,0,0,1-4,.55c-13.77-.59-25.43,6.14-37.53,11.07-6.18,2.52-11.49,7.12-17.61,9.83-11.5,5.09-23.73,7.36-36.11,4.34-13.34-3.25-26.21-.44-39.11,1.73-12.13,2-24.06,5.21-36.14,7.57-4.39.86-8.95.81-13.42,1.24-10.07,1-20.12,2.07-30.2,2.89a70.31,70.31,0,0,1-11.41,0C214.7,568.3,185.2,560,154.7,560.13c-13.49,0-27.06.71-40.44-.58-9.44-.92-18.71-4.35-27.87-7.24-9.35-2.95-18.54-6.44-27.68-10-7.26-2.83-14.39-6-21.46-9.32a11.37,11.37,0,0,1-4.8-5.1,4.24,4.24,0,0,1,1.59.25c13.66,8.68,29.55,10.92,44.62,15.52,2.79.85,6.07,2.78,8.29,2,1.85-.68,2.42-4.7,3.69-7.17.81-1.57,1.85-3,2.78-4.54l-1-1-6.51,6.88-1-.74,10.22-15.25,1.56.54L97.2,530l5.27-.75C100,536.46,92.23,540.38,91.83,548l1.26.72c2.33-3.5,4.6-7,7-10.48,4.53-6.41,14.1-5.5,17.82,1.64.53,1,1,2.06,1.65,3.35,2.29-1.26,4.44-3.36,6.5-3.28,1.68.06,3.25,2.73,4.45,3.85l13.27-5.89c-3.14-.7-5.2-1.58-7.22-1.53A35.58,35.58,0,0,1,112.09,528c-7.7-6.34-15.37-12.74-23.41-18.64-4.11-3-9-5.05-13.53-7.41-2.64-1.36-5.41-2.47-8-3.64,2.41-1.31,5.72-2,6.68-3.93s.06-5.18-.64-7.68c-1.57-5.6-3.56-11.09-5.3-16.65-.53-1.7-.77-3.49-1.14-5.24l1.42-.72L76.67,479c1.73-7.12-2.34-11.5-3.28-16.49,4.32,3.27,8.56,10.37,9.26,17.7.63,6.64.13,13.39.94,20.07,3.69-9.38,5-18.8.85-28.31-1.32-3.05-3-5.94-4.28-9a54.38,54.38,0,0,1-1.78-6.79c-4.17-1.18-5.61-5.8-3-12.93l1.78,7.28,1.34.09L83.51,436Zm42.35,74.74c-1.56,4-3.33,8-4.6,12.08-.75,2.43-1.65,5.39,2.6,7.35-.31-8.85,6-15.78,4.73-24.23l-2.88,5a33.66,33.66,0,0,1,.43-4.46c1.65-7.21,3.77-14.33,5-21.6,1.58-9.32,2.48-18.75,3.62-28.14a8.44,8.44,0,0,0-.43-2.41l-1.63-.18c-.92,4.75-2.58,9.5-2.61,14.25-.07,13-1.63,25.6-6.12,37.77C123,508.67,123.76,509.86,125.76,510.82Zm167.51,36.58c.72-5.51,3.69-5.9,7.39-5.86a121,121,0,0,0,16.45-.75c8.58-1.07,17.08-2.81,25.65-4,4.68-.64,10-2.43,12.41,5l3.92-7.8,4,7.28,2.8-8.64,1.54.16,3.8,8.66,2-.35-.8-11.37,1.06-.17,4.66,7,1.25-.58L378,528.29c3.38-3.72,6.87-2.92,10.47.4l1.11-5.4,5.61,2.11,1.24-4.71c4.46,4.48,3-2,5.16-2.18l4.85,1.91.56-6.22,8.38,4.72-1.65-9.19,6.9,1.91.53-5.29,6.45,2.06.88-.83c-4.49-3.71-1.78-7.33-.09-11.3-32.53,20.69-66.14,36.85-105.16,38.05,1.52-6.49,3.58-12.36,4.17-18.38,2-21.21,3.62-42.47,5.28-63.72.26-3.39,0-6.82,0-10.23-1.05.43-1.43.83-1.47,1.26-1.82,19.55-3.83,39.09-5.33,58.67-.78,10.19-1.8,20.2-6.07,29.66-1.51,3.33-3.75,4.82-7.36,4.76-5.66-.11-11.33-.06-17,0-6.28.06-12.57.06-18.85.35-5.31.24-10.6.84-15.89,1.28,6.06,3.54,14.38-1.62,18.11,7.45l3.18-1.94,3.24,4.83,4.35-4.84ZM214.39,445.47l-1.24-.3a23.94,23.94,0,0,0-1.86,4.78c-2.18,13.46-4.18,26.95-6.33,40.41-2.61,16.39,1.42,33.36-4.37,49.46-.08.22.24.58.68,1.59,12.38-.24,25.13,4.14,37.87-1.11a7.53,7.53,0,0,0-4.68-2.13q-12.23-.37-24.47-.41c-3.55,0-5.41-.59-3.91-4.89,1-2.9,1.09-6.2,1.2-9.33.86-23,1-46,5.7-68.62C213.64,451.81,213.93,448.63,214.39,445.47Zm3.4,39.79-1.32-.1c-1.56-16.75,5.7-32.79,5.3-50.86-6.45,10.5-13.21,76.45-9.3,83.95l1.46.11,1.34-30.19,2,.11V518h2.15l2.12-55.64-1-.11Zm187.7,62.55-1.27.15L399.92,540l-1.75.66.62,7.63-1.31.56-5-8.6-2,.66c.77,3.27.94,6.88,2.54,9.68.88,1.54,4.45,2.8,6.3,2.31a216.34,216.34,0,0,0,21.52-7.27c.95-.37,1.93-3.28,1.44-4.29-2.25-4.57-5-8.87-7.42-12.92l-6.81,1.6,4.26,12.82-1.51.52-3.4-5.8-1.3,0ZM114.4,459.53l-.79-.69c-.79,2.59-2.12,5.15-2.27,7.78-.4,6.95.23,14-.58,20.87-.52,4.43-2.71,8.7-4.45,12.92-.41,1-2.05,1.49-3.12,2.22,2.54-5.75,6-10.72,3.35-17.67-4.74,3.57-.61,11.51-7.86,13.31l2.84-10.48c-4.9,6.89-5.6,14.51-5.83,22.2l1.4.31,2.42-2.17,1.77,8c1.21-1.51,1.88-2,1.94-2.48.55-5.5,3.8-9.35,7.41-13.18a9.85,9.85,0,0,0,2.26-5.82C113.54,482.92,113.92,471.22,114.4,459.53ZM162.48,464l-1.7-.1c-3.07,10.81-5.53,22-4.57,33.13a84.89,84.89,0,0,1-.54,21.17c-.86,5.39-1.15,10.88-1.56,16.34a9.43,9.43,0,0,0,.82,3c.81-.34,1.22-.38,1.39-.61a2.24,2.24,0,0,0,.61-1.31c-1.38-13.24,6.52-26,2.15-39.4a7.1,7.1,0,0,1,.17-3c1.06-7.57,2.21-15.13,3.18-22.71A51.82,51.82,0,0,0,162.48,464Zm183.59-11.85-1.92-.38c-.6,2.06-1.53,4.09-1.74,6.19-.69,6.78-1,13.59-1.65,20.38-1.19,12.84,1.09,26-3.73,38.5-.14.37.39,1,.61,1.52l1.65,0C345.07,496.62,344.07,474.21,346.07,452.12Zm-20.55,14-2.32-.49c-.45,2-1,3.89-1.34,5.87-3.27,18.34,1.09,37.59-6.57,55.42,0,.08.18.26.79,1.08,1.1-1.53,2.51-2.73,2.94-4.22,1.57-5.38,3.5-10.79,4-16.31.87-9.21.66-18.51,1.11-27.76C324.38,475.16,325.05,470.64,325.52,466.11ZM178.88,557.35l37.62,5.09.42-2c-4.19-1.27-8.38-2.51-12.56-3.81-3.09-1-6.41-3.3-9.16-2.74-4,.83-6.34.61-7.22-3.82Zm18.52-43.2,1.63.17,6.13-57.66-1.69-.18A248.45,248.45,0,0,0,197.4,514.15Zm-108.74-8.8,1.76.13c4.34-8.5,3.51-17.71,2.65-27.25L96.23,480l-.71-4.36-1.71.64c-7.19-3.39-3.52-11.48-6-17.11-.54,4.67-1.6,9.61-.32,13.84a56.45,56.45,0,0,1,1.17,28A22.9,22.9,0,0,0,88.66,505.35Zm70.8,36.14c6.54-7.88,8.68-41.22,4.47-49ZM393,488.36c5-5.77,5.38-41.06.41-45.55-.36.8-1,1.56-1,2.25,1.46,14,2.55,28-.15,42.06C392.27,487.46,392.76,487.91,393,488.36Zm-286.39,32.4c3.91-7.36,7.73-13.81,10.83-20.6s3.29-14.18,1.57-21.6c-1.31,1.77-2.27,3.72-2.12,5.59a30.75,30.75,0,0,1-8.62,24.64C105.29,512,104.64,516.27,106.63,520.75Zm331-114.14c3.21-6.28-3.07-29.65-8.76-32.38C431.18,385.44,432.76,395.88,437.62,406.61ZM150,519.55c-.61,4.87-.85,9.83-2,14.59a53.6,53.6,0,0,1-4.42,11.67c-1.62,3.24-3.26,6.23-2,10.15C149,552,154,532.31,150,519.55Zm295.15-77.18-1.8-.07a35.12,35.12,0,0,0-1.09,4.82q-1,11.15-1.67,22.32c-.06,1,.6,2,.93,3,.79-.83,2.09-1.56,2.3-2.52,1-4.71,2.19-9.47,2.43-14.25C446.43,451.25,445.53,446.8,445.11,442.38Zm-342.68,10c-6.24,2.89-8,24.53-1.73,31.7,1.62-5.92-1.42-10.92-1-15.92C100.08,462.87,101.47,457.63,102.43,452.41Zm365.11,32.51,18.18,20.59C485.69,497.57,476,485.88,467.54,484.92Zm-23.35-50.26c1-8-.4-15.74-3.22-23.74C437.7,414.1,439.57,429.55,444.19,434.66ZM333.58,500.13c-2.57,2.83-4.49,16.79-3.13,22.8C335.33,514.23,336.92,502.66,333.58,500.13Zm46.36-47.93V474C383.36,470.61,384,456.84,379.94,452.2ZM261.66,477.93c4.14-4.18,5.88-22.2,1.86-27.71Zm-85.14,33.38c-3.42,4.32-3.41,18.7.11,22.84C178.38,526.32,177.89,519.15,176.51,511.31Zm146.87-60,3,.17v-26l-.84,0ZM232.46,485l-2.52-.13-2.34,26.76,1.74.15C230.32,502.86,232.77,494.06,232.46,485Zm151.91,2.81c5.11-4.29,7.18-17.37,3.82-24.06ZM189,534.12c4.24-3.48,5.18-15.77,0-21.67Zm147-41.4V473.4C332.37,478.39,331.9,488.94,336,492.72Zm-200.44-13,1.91.2c3-5.43,4.49-19.56,1.64-22.68Zm318.9,49.7c4.14-4.39-1.13-14.14-9-16.52ZM77.58,496.54l1.84.09c.46-4.24,1.05-8.47,1.28-12.71,0-.8-1.19-1.9-2.09-2.41-.34-.19-2,.84-2,1.43C76,487.56,75,492.29,77.58,496.54Zm399.74,7.81,2.19-2.3c-3.59-3.49-7.14-7-10.84-10.39-.5-.45-1.83-.21-2.65.07a2.52,2.52,0,0,0,0,2.12C469.71,497.43,473.53,500.87,477.32,504.36ZM97.87,449c-7.57,9.52-8.64,16.08-4.2,20.72Zm170.87,17.91c4.12-7.27,4.16-15,0-18.49ZM146.47,511.7l-1.91-.3c-1.27,6-2.6,12-3.73,18-.12.66.87,1.52,1.35,2.29.62-.77,1.62-1.45,1.8-2.31,1.09-5.14,2-10.32,2.92-15.51A6.34,6.34,0,0,0,146.47,511.7Zm324.76,15.37c3-5.69-.72-13.44-8-16.59Zm-282.05,12H170.89l.09,1.67A24.64,24.64,0,0,0,189.18,539.08Zm84.58,20.23-10.66,2.45c.24.72.63,3.31,1.17,3.35a18.8,18.8,0,0,0,7.92-.86C273.21,563.84,273.26,561.05,273.76,559.31Zm203.75-35.8A11.83,11.83,0,0,0,470.27,508ZM147.76,495l1.91.15c.84-5.23,3-10.35,1.27-15.78l-2-.15Zm-28.12,8.57c3.87-4,5.9-17.46,3.69-19.44Zm327,28.4c3.71-5.07.85-10.42-5.8-11.74Zm31.91-24.1,5.64,9.65C486.81,511.19,484.24,507.32,478.55,507.81ZM181.22,440.05l-1.93-.2L177.37,455l2.24.28C182.3,450.47,181.11,445.18,181.22,440.05ZM387.55,456l1.37-.06V442.55l-1.37.06ZM171.3,534.05v-15.4C167.74,524.38,167.75,530.37,171.3,534.05Zm12.94-16.46c-.87,5.16-3.7,10.3-1.6,15.63l1.6.1Zm109.69,38.47c-2.52.52-4.3.6-5.79,1.29a6.2,6.2,0,0,0-2.63,2.84c-.22.44,1.18,2.26,1.31,2.2a48.77,48.77,0,0,0,4.78-2.53l3.4,1.44Zm107.41-133c-5.15-.8-10.1,1.65-11.52,5.51C394.53,428.56,398.47,427.5,401.34,423.07Zm-291.2,16.18,2.47-12.56C107.31,430.93,106.62,434.11,110.14,439.25Zm163.29,18,2.71.44L277.66,445l-2.42-.34Zm-167.1,25.18V466.23C103,469.42,102.75,477.67,106.33,482.45Zm200.86,68.79-10,1.2C302.34,557.51,303.33,557.4,307.19,551.24Zm120.07-7.94c1.86-6.23-.11-9.49-5.9-9.69ZM145.79,462.39l2,.3,2.12-13.76-2.07-.3ZM439.55,535c3.36-5.26,2.52-7.86-3.54-11.25ZM124.15,477.07l1.64,0L127,464.94l-1.86-.16A15.57,15.57,0,0,0,124.15,477.07Zm32.08-24.88-1.74-.3c-1.49,3.55-3.13,7.07-1.55,11.07l1.85.27Zm-18.47,71-1.28-.15c-3.91,7.35-4,7.83-.31,10.83Zm-4.46-84.75,2.45.46,2.1-11.77-2-.36ZM309.07,558.55l2.55.15v-8.91l-1.83-.08ZM140.27,452.89l2.36.12,1.6-13.26-1.95-.23Zm5.55,25.34-2.69-.53-1.34,10.52,2.21.31Zm107.8,87.18.71,2c1.66-.41,3.76-.35,4.86-1.37s1-3.05,1.39-4.65l-1.5-.63Zm62-8.23,1.86,0v-9C314,550.9,314,554,315.62,557.18ZM421.43,397.29l2.34-.39-1.31-9.07-2.74.45Zm31.83,113-1.94,1.89c2.15,2.2,4.28,4.43,6.51,6.55.25.24,1.36,0,1.67-.36a1.81,1.81,0,0,0,.15-1.74C457.59,514.47,455.4,512.41,453.26,510.3Zm-54.37-62.11c3.4-4.88,3.1-6.66-1.43-9.89ZM128.18,532.1l2,.25,1.32-9.42-2.31-.28Zm64.33-83.93,2.79.31.62-10.23-1.87-.2ZM64.27,405.22c3.25-5,3.19-8,0-10.27ZM120.81,547.8l-2.69-1.13-2.63,6.71c.73.22,2,.77,2.09.62C118.76,552,119.77,549.89,120.81,547.8Zm127.61-70,2.48.28.75-9-1.8-.18Zm-52.5-6.59-2.56-.35-1,10.05,1.78.23Zm242-33.33-2.38-.07.41,8.07,2-.07Zm-197.49,2.19-1.25-.27a29.12,29.12,0,0,0-2.15,5.33c-.19.91.81,2.07,1.28,3.11.71-.7,1.91-1.32,2-2.11A41.91,41.91,0,0,0,240.38,440.11ZM127.5,432.6l2,.23,1.62-9.44-2.48-.37Zm-34.4-3.1,2.29.85,1.78-9.78-1.69-.43Zm25.21,87.91-1.92-.56-2.61,9.08,2,.6Z"/><path class="cls-2" d="M404.79,247.46l3.35-5.88-4.43-.94,1.1-4.65-4.87-.36,2.5-5-5.53.5-.36-3.32c-5.06.48-12.71-5.82-14.38-11.42,4.23.93,9,1.14,13,3A102.69,102.69,0,0,1,412.36,230c5.73,4.3,11,8.88,18.31,10.72s9.83,7.76,11.49,15.86c-3.72-4.23-5.42-9.26-10-8.64l-6.89,6.36c8,1.53,10.48,7.54,9.76,13.75-1,8.31,3.53,14.07,6.73,20.62a57.45,57.45,0,0,1,2.23,6.38l-1.91.27-2.6,45.92c2.2-1.23,5.08-2.74,7.82-4.45a6.44,6.44,0,0,0,2.23-2.58,55.76,55.76,0,0,0,5.26-31.58,7.68,7.68,0,0,0-2.12-3.88c-1.53,11.51.73,23.57-6.56,33.9a9.27,9.27,0,0,1,.19-2.72c5-12.84,2.24-25.5,1.07-38.68-1-11-5.7-21.09-4.5-32.37,1.24,3.36,2.45,6.73,3.72,10.08,2.59,6.82,4.73,13.86,7.92,20.39,12.26,25.15,2.75,52-22.5,63.6-8.46,3.87-16.59,8.48-24.77,12.95-17.08,9.33-33.6,19.89-51.29,27.83-13.2,5.93-27.89,8.53-41.91,12.65-10.32,3-20.6,6.24-31,9.11-1.9.53-4.14-.19-6.22-.33l.13.16-2-4.22c5.1-5.23,12.49-.86,18.25-4.91a25.4,25.4,0,0,0-4.25-1c-10.28-.73-20.3.45-29.84,4.58-14.2,6.16-29.21,8.17-44.45,7.65-8.19-.28-16.33-2.36-24.36-4.59l5.77-1.34c-6.84-6.5-2.71-13.75-2.73-20.57a76,76,0,0,1,.79-8l-2-.26L190,398.11l-.72,0-.89-6.09-.87-.07-3,9.36-.53-.15,3.81-40.56-1.37-.17L179.58,400l-2.05-.31a548.42,548.42,0,0,1,9.3-59.56l-1.4-.42-4.84,12L179,351.3c.85-3.28,1.92-6.53,2.47-9.86.23-1.4-.63-3-1-4.47-1.57.66-4.12.94-4.54,2-2,5.11-3.37,10.45-4.9,15.72-.22.76-.41,1.92,0,2.41,7.05,8.66.58,16.47-.6,24.59l-1.45-.13,3-17.23-1.4-.27c-5,11.37-8.95,23-8.07,35.93l-1.26.17-2.7-4.78c-2.81,4.17-1.45,7.89,3.85,9.33,6.74,1.84,13.61,3.24,20.41,4.86,1.68.4,3.33,1,5,1.43l-.35,1.49c-5.08-.87-10.28-1.32-15.22-2.7-14.27-4-28.59-7.91-42.56-12.79-7.44-2.6-14.41-6.8-21.24-10.86-13.73-8.17-27.21-16.73-40.41-24.9l1.3-12.8L64.32,352l-2.86-6-3.4,4.77c-8.28-7.31-1.92-17.46-5.33-26.32-4.78,7.17-1.37,14.79-3.26,22.23a13.84,13.84,0,0,1-3-12.78c2.27-9.38,5-18.63,7.57-27.95a9.84,9.84,0,0,0,.16-5.49c-6,9.38-7.75,20.55-12.27,30.5l-1.39-.41c.76-3.09,1.6-6.17,2.26-9.29,1.78-8.42,3.58-16.84,5.1-25.31.27-1.48-.78-3.2-1.22-4.8l-1.71.21-4.13,21.35-1.68-.22c1.08-7.43,1.61-15,3.38-22.24s7.8-12.46,12.29-18.33c-2.07-1.52-2.07-1.52-12.24,6.91l7-16.31-9,2.46L42.65,254,38,256.58l.38-5.78c-5.18,3.74-7.27,11.33-4.58,16.11,1.42,2.53,2,4.49-.25,7.17-1.4,1.67-1.68,4.56-1.8,6.94-.26,4.85-.08,9.72-.08,14.59H29.81c0-5.64-.08-11.29,0-16.93.11-6-.24-12.09.8-17.93,1-5.44,3.49-10.61,5.33-15.9l-1.27-1L26.4,253.3,25.35,253l5.07-14.55c-2.7-2.18-5.54-.79-6.69,1.83-2.16,4.93-4.5,10.2-4.82,15.44-.71,11.79.25,23.67-.42,35.47a73.92,73.92,0,0,1-4.2,21.34c-2.92,7.84-5.24,14.83,1.94,21.43.26.24.16.87.25,1.4-9.34-3.82-12.19-13.09-6.16-22.18s5.34-18.85,5.57-28.75c.29-12.44,0-24.94,1.24-37.3C18.05,237.6,23.85,229.93,32,225q20.08-12.09,41-22.8a42,42,0,0,1,25.81-3.93,13.86,13.86,0,0,1,6.22,2.77c2.4,1.91,3,4.37-.5,6.48L101,205.18l-.52,4.19L91,203.11l-1.18,1.6a19.3,19.3,0,0,1,2.45,2.22c1,1.21,1.71,2.57,2.55,3.87-1.47-.2-3-.36-4.42-.63a28.56,28.56,0,0,1-3-1l1.38,7.07-6.29-2.85,2,7.43-9.12-5.37-1.14,1.27,7.53,7c-4.22.65-7-8-10.89-.16l-4.74-.37-.92,1.18L76,232.69l-1.38,1.62-10.16-4.94L63.21,231l10.21,8.25-.67,1.1L60.54,235l-.91,1.6c4.25,4.12,11.06,5.72,13.72,13.21l-7.15-4.6-.87.84,7.88,11.22-1,1.3C64.34,252.3,56,247,46.65,243.92l-2.29,2.69a30.63,30.63,0,0,1,4.5,1.83c3.57,2.14,6.82,5,10.59,6.59,7.43,3.22,10.67,9.8,14.39,16.16,1.82,3.1,4,6,6,9,3.29,4.92,6.25,10.1,10,14.68a32.48,32.48,0,0,0,8.95,7.52c19.48,11.18,41.16,16.32,62.82,20.4,13.71,2.58,27.75,6.42,42.07,3.57,9.47-1.88,18.79-5,28.33-5.86,8.46-.8,17.12.74,25.7,1.12,5.58.25,11.77,1.95,16.64.15,24.16-8.88,49.62-11.26,74.56-16.25,16-3.21,29-12.17,40.66-23.18a17.09,17.09,0,0,0,4.28-6.67c3.18-9.36,6-18.84,9.12-28.79l2,.41-.48,4.56a30.69,30.69,0,0,0,4.38-1c2-.8,4-1.87,6-2.82l-.32-1.59Zm-75.54,80.42c-.78-3.85.19-8.55-5.67-10.92l2.57,17.54,3.18-6.75v7.12l2.89-2.56,2.48,6.19c2.89-6.17,2.46-15.4-.81-18.45-.49,2.22-.6,4.21-1.42,5.85C332,326.85,330.37,327.23,329.25,327.89Zm10.34,20.22c-3.32,14.66.36,28.53,4.23,42.44a6.78,6.78,0,0,0,.93-5,88.51,88.51,0,0,1-2-33.23,56.4,56.4,0,0,1,1.86-7.07l2.13.18c-5.2,15.43-2,30.28,2.48,45,0-6.76-1.38-13.45-1.45-20.15-.07-6.94,1.08-13.9,1.72-20.84.62-6.75,1.26-13.5,2-21l-3.14,1.75-2.14-11.44-2.36,0c1.83,8.19,3.14,16.29-2.26,22.92V319l-2.17-.07c-.11,5.08.4,10.28-.49,15.22-.92,5.09-3.19,9.95-4.87,14.9l-1-.32-.47-5.19-1.33-.22-4.22,15.6c1.9.49,3.72.79,3.7,1a23.69,23.69,0,0,1-.92,5.59c-.69,2.2-2.61,4.36-2.45,6.41.52,6.77,1.69,13.49,2.75,20.21a15.69,15.69,0,0,0,1.58,3.65l1.08-.32-1.71-20.31,1.44-.17,4.56,16.94,1.24-.22C337.79,377.1,333.86,362.41,339.59,348.11ZM315.7,326.27l2.06.54c.69,1.91,2.17,3.93,1.92,5.7a112.44,112.44,0,0,1-3.59,17c-3.45,11.21-6.56,22.47-5.17,34.31.69,5.89,2.4,11.67,3.65,17.5l1.44-.24-1.65-32,1.76-.12c.31,10.06.24,20.2,5.83,29.17a8.21,8.21,0,0,0,.25-5.15,46.86,46.86,0,0,1-.44-26.11c1.15-4.17,1.91-8.44,2.82-12.67.8-3.74,1.65-7.47,2.27-11.25.11-.68-.77-1.53-1.35-2.58l-2.18,2c-.3-5.12-.4-10.67-1.07-16.15-.19-1.53-2-2.85-3.14-4.26ZM95.64,357.37c-6.28,4.44-7.55,11.8-3,14.76,6,3.91,12.08,7.69,18.21,11.4,1.22.74,2.8.9,5.56,1.73-4.77-13.16,3.33-23,5.78-33.81l-2.1-.69-9.32,23.51-1.41-.4,4.93-21.14-1.93-.45c-1.78,6.29-3.53,12.58-5.36,18.85a24.75,24.75,0,0,1-1.51,3.32c-1.13-.56-2.52-.88-3.36-1.73-3.11-3.18-3-8.44.51-13.32a47.76,47.76,0,0,0,8.52-23.16c.21-1.84,2.12-3.46,3.12-5.24,1.58-2.79,3.06-5.64,4.59-8.47l-.39-2.51c-5.47,5.65-4.79-2.1-9.41-1.11-1.33,16.46-1,34.19-14.56,47.59Zm323.11-37,4.42,5.1c0-3.2.16-5,0-6.67-1-9.53-2.37-19-3-28.6-.16-2.35,2.05-4.82,3-7.3.75-2,2.14-4.32,1.66-6.08a77.36,77.36,0,0,0-5-12.47c-1.18-2.51-3-4.48-6.19-2.89l1,.88L409,270.55c.58,6.55,1.26,12.75,1.65,19s.11,12.66.86,18.9c.72,6,1.86,12.1,5.94,18.06ZM221.4,352.88v48.45c2-1.91,3.5-4.19,3.63-6.55.41-7.12,1.45-14.52.06-21.36-1.88-9.26-.33-17.81,1.66-26.59.47-2.06.07-4.31.07-7.09l-11.39,5.46-3.53,9-1-.28v-8.56c-4.45,9.68-4.69,19.8-5.25,29.88l2.34.32,1.82-16.54,2.61,6.52,1.74-.11c.19-3,.2-6,.62-8.92s1.25-5.92,1.89-8.87l.48.32v38.28l1.81.05c.05-6.3.76-12.68-.05-18.86C218.22,362.4,218.43,357.95,221.4,352.88Zm-130.94.82a23.89,23.89,0,0,0,6.07-14.8c.3-4.47.62-9,1.16-13.4,1.26-10.35-1.56-14.6-12-17.71-4.56,6.14-5.82,19.92-2.22,26.48l2.89-12.87c2.53,11.68-.38,22.16-4,33,1.37-.38,1.81-.36,2-.56.48-.66.85-1.4,1.26-2.11,4.79-8.2,5.73-17.19,5.6-26.46,0-2.06.68-4.14,1-6.21l2.12.37Zm270.7-35.29-1.48-.13c-4.6,9.95-3.16,35.66,2.54,39.12l.65-6.58,4,1.9c-.32-11.63-.59-22.83-1-34,0-.91-1.07-1.78-1.65-2.68l-1.19.16v31.08l-1.87,0ZM190.52,352.28,188.84,376c8.31-9.52,7.37-20.73,10.48-30.61.18-.58-2-2.44-3.35-2.84-1.68-.5-3.64-.12-6.44-.12l-2.72,10.85ZM155.45,351l-1.92-.52c-.61,1.26-1.22,2.51-1.82,3.77Q147,364.15,142.37,374a48,48,0,0,0-3,6.27c-.31,1,.61,2.37,1.26,4.54l4.08-8.33,1,.45-3.17,15.52,1.37.31L150,374l-3-.18,4.33-7.17c3.41,2.51,4.54.12,5.48-2.64s2-5.62,2.9-8.49a34,34,0,0,0,.73-4.69l-1.61-.38-5.72,14.72-1-.45Zm-28.25,41.09,2.06-.23a16.63,16.63,0,0,0,.43-3.77c-.94-8.45,1.82-15.79,5.34-23.4,3.23-7,4.29-15,6.3-22.55-1.77-.22-2.34,0-2.46.29-4.31,12.39-8.94,24.69-12.62,37.27C125.18,383.46,126.82,388,127.21,392.13Zm123.57-36-3.25-14.26L243,349.64c-1.66.92-3.88,2.21-4.06,3.74-.91,7.75-1.39,15.56-1.79,23.36-.08,1.54.87,3.12,1.34,4.69l2.08-.35V357.37l.94.06,2.55,5.07,2.59-8.15Zm-39.84,55.61,1.6-29.36-2.21-.33-2.17,10.52-1.43-.19V379.76c-3.67,4.24-5.43,29.52-2.35,32.27-.8-6.07-1.31-11.72,2.69-17.09C209.64,400.61,203.9,407.83,210.94,411.74Zm22.25-12.14,2.38,0c0-6.36,0-12.72,0-19.09,0-8.3-.39-16.63.27-24.88.47-5.82,2.4-11.53,3.68-17.29-4.85,5.13-6.76,11.73-7,18.06C232.07,370.76,232.9,385.19,233.19,399.6Zm59.17-26.16,1.39.37,7.51-41-1.74-.3C293.36,345.47,292.63,359.41,292.36,373.44Zm-5.14-36.33c-2.1,9.34-5.94,17.7-5.29,27.09,2.61-5.55,4.15-11.39,6.16-17.08.58-1.64,2.28-3.1,3.81-4.13,2.27-1.54,2.1-2.85.08-4.14C290.9,338.15,289.52,337.92,287.22,337.1Zm109.95-20,2.57-.55c-.62-8.39-1.18-16.78-1.93-25.16-.09-.94-1.28-1.78-2.58-3.48a21.66,21.66,0,0,0-.78,3.45c0,5.73-.17,11.48.26,17.18C394.93,311.48,396.31,314.29,397.17,317.14Zm-266,34.39-1.42-.5c-3.06,9.72-6.4,19.36-9,29.2-.67,2.53,1,5.68,1.53,8.41Zm142.68-8.87c-6,4-10.7,26.52-7,29.94Zm-73.55,32.7,2.07.38,3.94-32.11-1.45-.21C199.78,353.52,201.73,364.7,200.28,375.36Zm161.85,10.22c.5-.55.87-.76.88-1,.22-7-2.69-14,.87-21,1-2-1.23-3.67-3.23-2.14-1.41,1.08-2.84,3.42-2.68,5,.58,5.78,1.8,11.5,2.87,17.23C360.95,384.34,361.63,384.88,362.13,385.58ZM157.2,388.07c6.15-6.82,11.52-28.55,8.65-32ZM67,325c4.77-3.12,7.72-17.93,4.52-21.53C69.29,310.5,66.9,317.08,67,325Zm206.73,38.37c4.9-7.65,6.08-16.34,6.61-25.22C275.33,345.72,275.36,354.74,273.75,363.34ZM105.21,315.56l-1.49-.17c-4.31,4.63-5.26,15.84-1,20.94Zm22.73,9.31-1.62-.33c-3.67,4.93-5.71,19.24-2.56,21.91Zm-78.25-33,13.2-16.45C52.85,276.46,51.69,284.47,49.69,291.83Zm258.46,70.25c-5,3.92-7.74,17.74-5.07,23.34Zm-235.62-40,2.08,1.32c1-1.64,2.24-3.18,2.83-5,1-2.94,1.46-6,2.28-9,.44-1.62,1.12-3.17,1.69-4.75l-1.49-.57C76,309.47,74.31,315.81,72.53,322.09Zm241.16,7.3L309,352.59C313.83,347.9,316.58,333.59,313.69,329.39Zm103.6,11-1,.14L415.64,355l6.91-3.44Zm-120,59.83V381.54C292.28,387.78,293.62,394.77,297.33,400.25Zm-47.61-38.32-2.41-.52c-.94,5.67-1.94,11.34-2.73,17-.06.43,1.26,1.06,2.8,2.27Zm131.44-4.2,2.45,14.68C387.63,368.16,386.42,360.79,381.17,357.73ZM198.72,410.66V392.57C195.07,398.38,195.85,409,198.72,410.66ZM76.51,285.9l-3.65,2,.66,1.81,9.82-.52c-4.72-7.19-8.31-9.33-10-6.27ZM254.57,369l2.56-16.2C252.28,357.35,250.87,365.08,254.57,369Zm33.5,13.78,1.24-15.08C284.12,374.89,283.82,379,288.07,382.79Zm-.73,4.68-2.49,14.16C291,397.29,291.55,393.76,287.34,387.47Zm87.88-28.57c-2,4.83-.27,14.84,3.52,17.75C378.93,370.14,376.37,365,375.22,358.9Zm-76.13,14,6.45-17.81C300.95,357.55,297.59,367,299.09,372.91ZM264,379.13c-4.38,2.61-5.88,10-2.43,14.12Zm40.8-35.81,2.5.39,2.89-15.6-2.4-.41ZM273.3,369.13l-1.86-.42-1.62,12.65,1.94.26C274.72,377.82,273.94,373.46,273.3,369.13Zm-44.33-17,1.47.41,3.66-15.24C230.2,339.59,227.94,346.76,229,352.11Zm-160.31-54c-5.63,2.78-6.91,7-4.36,13.13ZM402.16,293c3.79-4.23,3-8-2.37-10.93Zm2.23,24,2.23-.28-2-16.83-1.78.18ZM292.73,349.83l-1.76-.51c-1.41,4.49-3.8,8.77-3.51,13.64l2.22.51Zm88.5-46.49c-2.44,4-.46,6.75.81,11C385.76,309.18,385.48,306.11,381.23,303.34Zm7.86,3,2.46,0c0-2.53.36-5.14-.17-7.55-.23-1.05-2.31-1.7-4.72-3.32ZM272.62,400.19l2.29-.07c1-3.45,2-6.9-2.74-9.92ZM229.07,360l-1.45.16v11.7h1.45Zm51.08,40.72c1.3-3.86,2.68-7.39,1-11.92C277.68,393.51,277.4,397.68,280.15,400.7ZM63.09,316.91l-1.65-.33-2.09,8.69C64.74,322.6,65.27,321,63.09,316.91Zm199.27,46.62-2.84-.26L259,373.62l2,.15ZM167,349.93l2.06.58,3.06-10.64-2.29-.64Zm235-28.2-2,.28,1.39,10.76,2-.28ZM370.79,360l-2.56.41,1.75,9.4,2.06-.34Zm39.69-4.8,2-.11-.55-10.1-2.3.16ZM265.8,348.39c-4.8,1-5.76,3.21-3.86,9.7ZM59.2,308.57,58,308.12c-1.32,2.58-2.8,5.11-3.88,7.79-.29.73.6,1.93,1,2.92.67-.33,1.79-.53,1.93-1C57.85,314.77,58.49,311.66,59.2,308.57Zm223.46,62.1-2.9-.28-.49,9.13,1.81.18Zm-162.4-36-1.7-.32-3.78,13.1,1.67.44Zm250.56-11.51-1.9.08v6.91l2.27-.09Z"/><path class="cls-3" d="M101.19,118.86c-7.18-7.91-7-17.53,1.37-23.86a61,61,0,0,1,16.27-8.45c16.84-6,34.14-5.14,51.14-1,11.09,2.68,19.93,9.54,27.39,18.32,20.27,23.87,40.79,47.53,61.15,71.32a68.78,68.78,0,0,1,4.42,6.62c-1.7.22-3.44.11-3.56.5-2.18,7-5.19,2.72-7.2.28-10.59-12.86-20.83-26-31.41-38.87-11.75-14.29-23.92-28.22-35.51-42.63-5.53-6.87-12.46-9.53-20.86-9.86-13.07-.52-25.46,2.65-37.62,6.89-4.35,1.52-8.82,3.16-12.6,5.7-5.23,3.52-6.09,7.25-3.36,13,3.75,8,8,15.69,12.07,23.53.21.4.33.85,0-.08l-5.94,4.95-2.77-3.83h4.64l-4.54-8.26-2.37,3.35-10.18-14.92,1.6-.15,1.31-4.51-1.62-.63Z"/><path class="cls-3" d="M168.56,101.85c2-1.33,4.13-2.64.27-5.3,6.72.61,7.54,1.48,6.63,6.8-1.54,9-3,18.09-5,27-.95,4.25-3.06,8.25-4.66,12.39h-15l-.22,1.83,7.34,1.8-14.21,6.84.12,1.36,9.91,1.17c-8.3,4.31-11.19,4.53-15.67-2.75-7.81-12.69-14.49-26.08-21.21-39.4-.86-1.71.2-5.27,1.6-7s3.81-4.51,6.82-.89c.6.73,3.44-.36,5.23-.67,10.93-1.89,21.41-6.74,32.86-5.21,1.8.24,3.48,1.3,5.22,2-11.61.24-23.89-1.85-33.14,9.8l23.31-2.7.18,1.35-19.42,3.25.3,1.15,28.9-2.77-3.39-2.82,5.48-1.4v-1.78l-13.67-1.13.18-.52Zm.17,19.78-.11-.59H149.27l-2.73,1.22c8,.63,2.68,3.17,3.13,4.47h19.17l.14-2.13-15-1.4v-.7Zm-24.61,9.29-.05-1.64h-9.59l0-1.28,8.24-1-.22-.73H130l3.83,6.62Zm24.47-14.26-.19-2.29-23.85,2.24.18,2ZM148.4,138.59l.23,1.74L165,138.54l-.14-1.45C159.11,134.78,153.82,137.55,148.4,138.59ZM152,129.5l-.13,1.6,15.54,1.62.19-2.42C162.52,128.4,157.18,130,152,129.5Z"/><path class="cls-3" d="M216.34,158.68l-24.25-32.86,1.35-1.19,8.16,6.55-4.48-9.44,1.32-.9,40.74,53.21-.9.86-4.89-2.62-1,.72,5.8,9.64-1.32,1.05-16.52-20.86-1.71,1.27,5.12,8.05-1.26,1.19L210.72,161c.47,2.93.82,5.24,1.23,7.53.37,2.08.8,4.15,1.31,6.76l-3,2.75c-10-9.53-11.2-12-7.72-15.95l-3.58-2.63-4.35,8-6.42-7.3,4.92-.88c-.5-1.28-.75-2.75-1.55-3.8-4.68-6.13-9.5-12.15-14.27-18.21l-1.57,1.11,13.29,19-.8.89-4.09-1.17c-.25,2.42,3.26,5.81-1.91,6.19l2.29,5.81-6-3.72-2.15,5.83c-6.79-6.15-12.11-14.95-10.63-20.2l8.18,12.19,2.14-1.81-3-6.89,3.77,1.35.76-.83-5.14-6.62-3.71,3.19c-.38-1.6-1.25-3.07-.86-4,3.33-7.76,6.88-15.42,10.78-24l4.48,5.06-3.65,2.46,11.77,15.27,2.34-4,3.34,4.52h-4.08c1.78,8,10.28,6.81,14.37,12.8l1-5.18,7,5.34Z"/><path class="cls-3" d="M90.93,38.47c-2,.36-2.91.72-2.55,3.49.77,6.05,5.63,7.86,9.76,9.38,5,1.83,4.92,5.37,4.95,9.07,0,3.26-1.56,6.58,4,7.17,1.44.15,2.47,4.29,3.44,6.15l-4.14,4.75L102.45,77,107,86.63l-7.21,2.88c-4-6.64-10.84-11.69-13.67-20.15-1.46-4.37-5.77-7.78-8.8-11.63l-1.18.68.69,5-10-8.17-1.09.95c6.38,9.48,17.8,15.62,20,27.89-2.1-2.45-7.73-2.52-5.67-7.88.16-.43-1.2-1.46-1.88-2.19C73,68.49,67.79,63.1,62.84,57.48A23.51,23.51,0,0,1,58.24,49l3.59,1.34c.16-.67.38-1,.28-1.28C59.18,41.88,59,41.6,65.95,37.8c3.87-2.12,8.31-3.28,12.6-4.49,1.41-.4,3.17.36,4.75.68s3.08.75,6,1.46l1.56,3.14Z"/><path class="cls-2" d="M83.51,436l-7.58,4.46a16.52,16.52,0,0,0,.3-3.07,28.41,28.41,0,0,0-.75-3.74c-1.09.81-2.68,1.39-3.16,2.47-1.26,2.82-2,5.86-3.15,9.23-3.32-2.36-2.88-5.19-1.73-7.93,1-2.47,2.5-4.75,4.16-7.82-8.61,2-11.15,12.19-6,18.71a40.35,40.35,0,0,1,5.07,8.61c-10.24-5.13-12.21-17.7-4.68-30.84L60,427.59v-5.17c-3-.25-3-.25-10.49,6.57l5.63-11.72-.87-1L48,419.79l1.35-8.69c-6.88,3.65-7.63,8.07-3.07,11.42-2.81,9.93-6.24,20.12,2.38,29.58V432.68c-.35,11.92,5.47,21.6,10.79,31.49,4.32,8,9.51,15.78,9.09,25.51a6.62,6.62,0,0,1-.16,1.32L52.91,455.59l-2.43.76c.28,1.89.18,3.93.9,5.63,2.57,6.14,5.43,12.15,8.14,18.23.62,1.4,1.05,2.89,1.57,4.34l-1.53.74q-3.06-5.47-6.11-10.94c-3.66-6.58-7.82-12.94-10.79-19.82-1.76-4.1-1.78-9-2.32-13.56-.37-3.13.26-6.46-.55-9.43-2.17-7.93,0-14.81,4.22-21.33,1.89-2.94,2.89-5.26-1.6-6.77-.92-.31-1.1-2.46-1.94-3.5-1.26-1.57-2.7-3.88-4.25-4-1.31-.14-3.63,2-4.25,3.67-3,7.83-4.82,15.64-2.33,24.32,1.24,4.33.51,9.78-.92,14.2-4.79,14.78,1.9,26.19,9.81,37.42.57.81,1.76,1.31,2,2.16,3.57,10.64,12.71,14.3,22,17.79.41.15.72.6,2.34,2-3.31-.46-5.41-.26-7-1.07-5.62-2.85-11.1-6-16.54-9.17a4.26,4.26,0,0,1-2.07-2.69c-.42-6.74-5.59-10.75-8.93-15.76-6-9-9.14-18.05-5.56-29.15,1.82-5.66,1.2-12.14,1.45-18.26.29-7,.15-13.95.6-20.9a19,19,0,0,1,2.34-7c2.49-4.91,5-5.32,8.78-1.39,3.47,3.59,6.35,7.76,10,11.19,11.69,11.09,23.59,22,35.43,32.9Z"/><path class="cls-3" d="M207.89,261l-5.68,4.39L126.35,159.29l1-.87,3.89,2.26,2.5-6.08,75.82,105.82Z"/><path class="cls-3" d="M84.11,19.41c-3.27,1.08-5.12,2.25-6.94,2.2C68.92,21.39,62,24.8,55.27,28.93c-1.57,1-3.57,1.21-5.37,1.79-.08-1.83-.12-3.67-.26-5.5-.12-1.61.24-3.66-.6-4.74-2.89-3.69-1.49-7.81-1.66-11.74A3.76,3.76,0,0,1,49.12,6,18.15,18.15,0,0,1,70.06,7.69C74.46,11.17,78.68,14.87,84.11,19.41Z"/><path class="cls-3" d="M145.57,218.81l-25.38-35.43-2.78,3.06-1.75-3.68c5.86-.91,10.29-3.48,5.89-11.83a41,41,0,0,1,4.41,4.47c3.73,5.1,7.3,10.32,10.86,15.53,1.25,1.83,3.33,3.65.75,6a1.37,1.37,0,0,0,0,1.34c4.36,4.6,3.9,12.85,10.83,14.73,1.47-.59,2.54-1.32,3.61-1.32.56,0,1.13,1.28,1.69,2-.89.48-1.81.89-2.66,1.44C149.22,216.3,147.48,217.52,145.57,218.81Zm-19.67-36.19-1.49.89,6.87,10.25,1.92-1.36Z"/><path class="cls-3" d="M374.58,259.83c3.18-5.16,16.35-6.17,19.23-1.45.76,1.25-.39,4.37-1.57,6a6.33,6.33,0,0,1-8.84,1.84c-2.41-1.39-4.59-3.19-7-4.89l-.74,8.77c-2.57-1.47-4-2.31-5.46-3.11-1.8-1-3.52-2.32-5.46-2.84-3.77-1-4.8-3.39-3.81-6.75,1.16-4,4-2.62,6.42-1.52S372,258.38,374.58,259.83Z"/><path class="cls-2" d="M51.58,527.08a49.24,49.24,0,0,1,4.69-5.32c4.65-4,9.34-8,14.34-11.5,1.24-.87,3.86-.3,5.64.25,2.18.67,4.15,2,7.5,3.73l-1.65,7.33,7.2-3.42.82,1.23L71,536.48l-1.84-1.68,10.73-12.72-5,.77,1.41-4.23-4.9.55,2.38-5.11-1-1.14-20.1,15.31Z"/><path class="cls-3" d="M90.09,28.92c-4.64.57-8.24.71-11.69,1.5a75.93,75.93,0,0,0-13.25,4c-5.35,2.32-10.38,5.37-16.67,8.7C52,29.27,79.08,18.46,90.09,28.92Z"/><path class="cls-3" d="M382.89,236.53,375.35,231l-.6.71,2.57,6.63c-9-5-19.16-4.78-24.6-13.5l.52-1.5L373.13,230c3.31-3,9.33-3.9,13.88-1.65,3.67,1.82,5.08,4.81,4.7,9.59l-5-.63-1.59-4.12Z"/><path class="cls-3" d="M251.43,263.85l1.09-6.51-4.14-.77c2.75-4.15,4.7-4.3,12.62-1.26,8.22,3.16,13.13,9.6,11.93,17.31-4.45-2.54-8.32-5.16-12.53-7C257.64,264.43,254.37,264.39,251.43,263.85Z"/><path class="cls-3" d="M232.7,246.4l6.3-4-7-3-4-9.27-1.72.55v15.33l-1.49,0c-3.21-5-3.64-10.51-2.27-16.14,1.13-4.65,5.45-6.43,8.72-3.22,4.95,4.86,9.53,10.37,9.29,18-.06,1.92-1.24,3.8-1.9,5.7Z"/><path class="cls-3" d="M331.06,305.09l1.57-4.91-.6-.47-4.4,4.92-1.2-.35c0-1.82-.54-3.92.2-5.36.43-.85,2.92-1,4.44-.86,3.11.22,6.19.81,9.64,1.3-3.71-4.37-15.39-5.24-20.78-2a11.58,11.58,0,0,1-3.83,1.3c-.24,0-1.17-1.68-1-1.8,1.16-1.1,2.34-2.46,3.78-2.92,8.08-2.61,16.31-3.18,24.32,0a7.31,7.31,0,0,1,4,4.78c.17,1.27-2.2,3.71-3.88,4.23C339.66,304.11,335.71,304.36,331.06,305.09Z"/><path class="cls-3" d="M235.46,206.45l-5.88,2.83c-1.71-2.44-3.45-4.84-5.11-7.3-3.38-5-2.76-6.53,3.25-8.15,7.71-2.09,13.66-.19,16.59,6.17,1.14,2.46.48,5.76.65,8.91-6.21-2.42-8.29-10.18-16.18-9.67Z"/><path class="cls-3" d="M259.51,231.05c1.7-3.15,2.65-4.86,3.56-6.6,3.5-6.68,13-8.74,18.86-3.81.81.68.7,2.95.36,4.32-.23.94-1.58,1.62-2.46,2.39-3.12,2.73-6.25,5.44-9.56,8.32l-4.06-3.15,6.9-4.87-.6-1.21Z"/><path class="cls-3" d="M183.72,202.6c9.35.17,17,1,22.25,8a14.53,14.53,0,0,1,2.75,5.7c.8,4.16-1.44,6-5.47,4.56-4.67-1.72-9.16-3.9-13.73-5.88l.75-2.29,17.27,4.3C200.86,208.9,189.43,212,183.72,202.6Z"/><path class="cls-3" d="M307.38,232c-9.37,11.09-13.5,12.27-20.7,6.92l14-3.17.19-1.53c-1.59-.29-3.29-1.07-4.76-.76-4,.85-8,2.28-12,3.23-1.2.28-2.59-.26-3.9-.43.43-1.34.57-3.63,1.32-3.85,6.29-1.88,12.63-3.87,19.1-4.71C302.74,227.43,305.25,230.55,307.38,232Z"/><path class="cls-3" d="M319.68,203.48c-3.61-3-7.07-2.3-10.16-1.09s-5.88,3.28-9,5.11c1.35-4.8,7.07-8.29,13.7-8.65,5.21-.28,9.31,2.27,10.88,7a3.91,3.91,0,0,1-.22,3.16,3.45,3.45,0,0,1-3,.58c-8-2.24-8-2.27-13,2l-2.28,7.84-1.52-.25-2.59-4-3.69,1.9C298.37,213.1,298.37,213.1,319.68,203.48Z"/><path class="cls-3" d="M323.75,282.28l6.86,3.43,0,1.65c-1.48,0-3.41.6-4.35-.11-3.79-2.85-7.61-2.61-11.79-1.25-3.69,1.2-6.62-.73-6.77-4.64-.13-3.28,2.89-2.69,4.88-3.8,6.58-3.64,12,0,17.68,1.57,1.72.47,3.1,2.14,4.64,3.26l-.83,1.38-9.91-2.8Z"/><path class="cls-3" d="M90.51,112.2l3.85,6.45-1.46.05c-.75,2.62-2.07,5.23-2.15,7.88A107,107,0,0,0,98.34,171c1.18,2.87,2,5.87,3.43,9.92C90.54,167.75,84.82,129.34,90.51,112.2Z"/><path class="cls-3" d="M216.81,309.18l5-.76c-2.44-2.73-4.56-4.85-6.35-7.23a3.22,3.22,0,0,1,.1-3.07c.65-.8,2.29-1.62,3.11-1.33,5.94,2.11,9.89,6.5,12.44,12.11,1.35,3-.16,5.05-3.18,5.29C223.68,314.52,219.76,313.47,216.81,309.18Z"/><path class="cls-3" d="M277,302.19c-3.14-1.41-4.68-2-6.13-2.78s-3.49-1.44-3.77-2.54.7-3.72,1.79-4.21a21.71,21.71,0,0,1,8.71-2.23,59.14,59.14,0,0,1,12.7,1.68c2.21.5,4.17,2.08,6.94,3.53-4.77,4-7.82,4-11.64,1-2.64-2.09-6.37-2.8-10.7-4.57Z"/><path class="cls-3" d="M222.43,290.06c6.45-4.76,11.62-4.43,16.49.11,1.46,1.36,2,4,5.48,2.76,2-.72,5.16,5.92,4.49,9.11-5.32-1.19-10.75-2.14-10.89-10.23l-3,3.63Z"/><path class="cls-3" d="M253.61,278.47c-2.53,1-6.56,2.2-9.86-3.19l7.3.58.26-1.34-4.08-1.59c6.74-3.22,18,3.39,20.13,12.23a4.4,4.4,0,0,1-1.3,3.44c-.41.41-2.32,0-3-.66C260.1,285.2,257.35,282.26,253.61,278.47Z"/><path class="cls-3" d="M339.32,217.4c-4.25,2.29-8.63,3.48-14.23.37l6.34-1.14.77-1.26L328,213.23c1.48-1,2.17-1.72,3-1.91,7-1.58,16.5,3.09,19.48,9.51C341.45,223.81,341.45,223.81,339.32,217.4Z"/><path class="cls-3" d="M288.08,204.28l-12.72-5.86,3,6.66-.57.73-11.11-9.35c3.71-5,7.66-5.33,16.12-1.72C286.76,196.43,288.35,199.4,288.08,204.28Z"/><path class="cls-3" d="M314.88,187.71c-6.12-3.91-11.15-9.8-19.47-5,6.9-6.53,17.86-6.76,24.33-.94,1.09,1,2.14,2.88,1.93,4.15-.17,1-2.16,2-3.53,2.51-2.58,1-5.28,1.69-7.94,2.51l-.55-1.68Z"/><path class="cls-3" d="M241.37,266.41c-2.89,1.93-.32,7.41-5.48,6.92a52.25,52.25,0,0,1-9.51-2.15,66.08,66.08,0,0,1-6.4-2.56C223.41,263.74,233.1,262.47,241.37,266.41Z"/><path class="cls-3" d="M263.42,246.68c5.13-5.39,17.26-3.86,21,2.8C276.92,252.56,269.34,255.67,263.42,246.68Z"/><path class="cls-2" d="M40.55,498.53c-4.11,3.29-7.35,6.29-11,8.69s-4.3,5.13-2.63,8.88c1.33,3,2.54,6,3.9,9.26-6.8-3.54-9.94-9.29-8.45-15.08S32.67,498.26,40.55,498.53Z"/><path class="cls-3" d="M368.87,241.53c5.86-.27,11.26.41,15.48,5.47l-3,1.52.39,1.42,4.72-1.2c2,1.93,2,3.33-1.58,4.18C377.5,254.65,370.91,250.1,368.87,241.53Z"/><path class="cls-2" d="M22.46,340,65.1,359.67C54.66,359.65,28.53,348.14,22.46,340Z"/><path class="cls-3" d="M165.49,279.64c2-.84,3.44-1.73,3.62-1.52,4.29,5,10.85,1.7,15.65,4.4,1.85,1,4.94,3.4,4.67,4.11-1.15,3.06-3.75,2.81-6.6,1.57a28.19,28.19,0,0,0-7.21-1.68c-3.42-.49-7.67.47-7.44-5.24C168.2,280.93,167,280.52,165.49,279.64Z"/><path class="cls-3" d="M94.07,243.93l-2,2.91,3.53,3c-2.62,5.63-6.35,7.44-11.27,4.73-1.41-.78-2.7-4.79-1.95-5.93,2.48-3.75,6.61-5.32,10.9-6Z"/><path class="cls-3" d="M326.69,264.34c2.18-3.81,7.08-2.59,10.55-1.18,3.27,1.32,5.59,5,8.33,7.62-1,.63-2,1.82-2.9,1.78a33.26,33.26,0,0,1-6.82-1.24,8.32,8.32,0,0,1-3-1.56C331,268.28,329.26,266.63,326.69,264.34Z"/><path class="cls-2" d="M180.34,354.58,173.26,404c-4.23-17,4.79-32.88,4.58-49.61Z"/><path class="cls-3" d="M186.28,314.34l-8.08,1.07,2.26,3.41c-5.64,1.89-7.37.78-9.63-6.14L175,312c-1.49-1.39-2.43-2.29-3.39-3.16s-2-1.72-3-2.62c5.52-2.18,7.85-1.23,11.09,3.39C180.81,311.25,183.11,312.13,186.28,314.34Z"/><path class="cls-3" d="M364.23,284.58H353.68l-1.79-3.47-8,7.54c-2.24-2.34-.74-5,1.3-6.84,4.72-4.28,15.51-4.3,21.36-.18Z"/><path class="cls-3" d="M115.31,154.22c-8.54-8.78-20.62-28.68-19.15-33.79l20.3,33Z"/><path class="cls-3" d="M169.86,170.72c3.84,4.57,7.57,9.24,11.57,13.67,2.14,2.37,2.88,6.95,8.15,5.19,1-.33,3.11,2.77,5.17,4.71-4.28,2.12-7.56,2.32-10.07-.88-5.33-6.77-10.44-13.72-15.6-20.62-.23-.31-.12-.88-.16-1.34Z"/><path class="cls-3" d="M330.79,225.73c-6.95,4.33-10,4.49-14.83.72l2.86-2.22c-3.94.18-7.16.33-10.38.45-.05,0-.12-.28-.18-.43C313.78,219.42,325.94,220.06,330.79,225.73Z"/><path class="cls-3" d="M352,239.92c-7.54,1.79-13.37-3.1-20.13-5.46.78-4.1,2.11-6.05,6.29-3.73,4.78,2.65,9.74,5,14.62,7.46Z"/><path class="cls-3" d="M256.13,222.1l-21.36-6.31c2.69-3.34,5.64-4.13,10.51-3.09,5.22,1.12,8.85,4.33,11.81,8.32Z"/><path class="cls-3" d="M124,278.47c3.5-7.84,14.5-7.82,21.9.62-4.9.5-9.12,1-13.35,1.23-.35,0-.81-1.69-1.32-2.83Z"/><path class="cls-3" d="M359.8,207.87c-5.27.67-10.1,1.45-15,1.8-1.28.09-2.65-1.16-4-1.79.91-1.43,1.49-3.4,2.78-4.19C348.15,201,355.28,202.86,359.8,207.87Z"/><path class="cls-3" d="M326.86,194.34c6.52-3.73,14-2.15,18.18,3.56C339.7,201.11,330.45,199.42,326.86,194.34Z"/><path class="cls-3" d="M362.44,217.4c3.56-1.5,4-8.45,10.33-5,4,2.17,6.6,4.66,7.19,10.23l-6.65-5.33C369.68,223.07,366.2,216.91,362.44,217.4Z"/><path class="cls-2" d="M38.49,278.4c-2.66,13.33.62,27.41-6.35,40.21.94-6.89,2.15-13.76,2.76-20.68.59-6.63.57-13.32.81-20Z"/><path class="cls-3" d="M291,284.67l-13.44-4.79c.58-2.93,5.25-5.19,9.62-4.17C291.92,276.82,292.68,278.45,291,284.67Z"/><path class="cls-3" d="M98.41,293.29,85.25,282.43c6.47-1.51,13.7,1.63,15.45,6.08.52,1.32-.22,3.13-.39,4.72Z"/><path class="cls-3" d="M42.45,16.29l1.78,25.13C38.48,39.36,37.42,26.08,42.45,16.29Z"/><path class="cls-3" d="M387.08,274.54c-1.86,5.62-6.51,6.1-10.94,6.33-1.31.07-2.73-1.86-4.1-2.87.89-1.05,1.57-2.47,2.7-3.09C378.64,272.73,382.73,271.86,387.08,274.54Z"/><path class="cls-3" d="M324.72,258.93l4.43-2.66-.1-.95-12.92,1.12c4.46-4.93,10.3-6.56,15.24-4,1.48.77,2.31,2.77,3.44,4.21-1.57.93-3,2.16-4.74,2.68C328.82,259.72,327.28,259.17,324.72,258.93Z"/><path class="cls-3" d="M214,250.8l15.67,4.45-.14,2.21-7.73.63c-1.32,2.07-6.62,2.07-7.72-1.26C213.54,255.3,214,253.47,214,250.8Z"/><path class="cls-3" d="M236.9,219.21l15.17,4L252,224.6c-2.93.79-4.12,6-8.58,2.9-2.66-1.82-5.33-3.63-8-5.44Z"/><path class="cls-3" d="M146,282.87c6.17-3.77,10.55,0,16.59,0-4.62,2.26-4.16,9.84-10.25,6.33C150,287.82,148.41,285.29,146,282.87Z"/><path class="cls-3" d="M124.62,291.63c13.45,4.74,20.58,9,17.19,15.26Z"/><path class="cls-3" d="M304.82,269.48,317,268.14l.24,4.7a9.59,9.59,0,0,1-1.38.54c-2.74.6-5.47,1.25-8.23,1.73a43.25,43.25,0,0,1-4.56.33c.34-1.61.65-3.23,1.06-4.82a4.58,4.58,0,0,1,.83-1.24Z"/><path class="cls-3" d="M192.79,289.6c7.36-6.06,12.88-7,18.74,0Z"/><path class="cls-3" d="M112.28,282.75c-5.15,4.12-8.5-1.08-13-2.59l2.48-2.64-12.51-.74C98.38,274.17,108.42,277.21,112.28,282.75Z"/><path class="cls-3" d="M258.52,237.06c-2.91,5.75-7.15,4.19-10.7,4.31-.57,0-2.1-3-1.67-3.77,1-1.59,3-3.74,4.39-3.61C253.22,234.23,255.77,235.91,258.52,237.06Z"/><path class="cls-3" d="M208.82,232.94c-2.08-6.44,2.52-12.28,8.3-11.27,2,.36,4,1.49,1.82,3.53C215.89,228,212.31,230.32,208.82,232.94Z"/><path class="cls-3" d="M304.92,269.38c-1.72-.47-3.47-.84-5.14-1.43-4.43-1.55-8.82-3.2-13.09-4.76,4.48-5.14,9.52-.1,14.32.34,1.44.13,2.55,3.87,3.81,6Z"/><path class="cls-2" d="M66.6,506.25c-1,2.05-1.57,4.67-3.18,6-4.59,3.92-9.6,7.34-14.47,10.93a8.19,8.19,0,0,1-1.65.73l-1.12-1.29,19-17.17Z"/><path class="cls-3" d="M291.27,251.84a8.49,8.49,0,0,1-.41-1.75c3.16-1.42,6.26-3.24,9.59-3.93s5.79,1,6.51,5.54H291.09Z"/><path class="cls-3" d="M272.36,311.24l-18.28-3,.13-1.57H259l-.56-1.39,6.37-3.05-.72,4.2,8.75,2.58Z"/><path class="cls-3" d="M278.77,215.41c-3.86-.37-7.26-.6-10.63-1.08-.68-.1-1.75-1.16-1.72-1.74a4.17,4.17,0,0,1,1.33-2.83C271.47,206.89,277.07,209.55,278.77,215.41Z"/><path class="cls-3" d="M273.35,175.63c4.48,1.12,8.48,2,12.35,3.19.92.29,1.44,1.86,2.15,2.84-1.29.25-2.67.94-3.84.68a113.23,113.23,0,0,1-11-3.09c-.84-.28-1.4-1.37-2.09-2.08Z"/><path class="cls-2" d="M276.86,415.2c-4.68,5-10.68,3.78-16.35,4.14l-.7-1.86,11.86-4.7,5.32,2.58Z"/><path class="cls-3" d="M108,242.36c1.84-7.44,7.06-9.45,13.84-5.08Z"/><path class="cls-3" d="M315.53,242.42a35.78,35.78,0,0,1,2.25-5.37c.79-1.3,2-2.78,3.35-3.13.74-.2,2.75,1.59,2.95,2.7.27,1.53-.11,4-1.16,4.75-1.77,1.33-4.28,1.68-6.48,2.44Z"/><path class="cls-3" d="M171.87,297.27c4-1.48,6.56-3,8.76.53.36.58,1.89.32,2.7.78a40.91,40.91,0,0,1,3.78,2.72c-1.41.63-3.16,2.14-4.16,1.74C179.44,301.65,176.19,299.6,171.87,297.27Z"/><path class="cls-3" d="M262.28,199.11c-1.63,3.74-3.5,6.79-7.64,5.64-1.22-.34-2.85-4.3-2.37-4.82C255,196.92,258.49,197.11,262.28,199.11Z"/><path class="cls-3" d="M220.81,275.75l8.69,6.25c-3,3.87-6.8,3.3-9.27,1.83-1.37-.82-.89-4.75-1.24-7.28Z"/><path class="cls-3" d="M286.09,211.36c3-.15,6.4-4.54,8.85.29.56,1.09-2.48,4-3.86,6.09L285,213Z"/><path class="cls-3" d="M104.46,223.16c2-1.13,4.13-3.22,6.14-3.15,2.93.11,5.8,1.78,8.7,2.78l-.57,2.64-13.54-1Z"/><path class="cls-3" d="M356,251l-11.2.94c1.11-4.55,5.48-6.61,11.2-5.46Z"/><path class="cls-3" d="M190.18,220.18,201,224.53l-1.57,4.4C194.51,229.18,192.26,227.18,190.18,220.18Z"/><path class="cls-3" d="M67.37,76c-7.5-3.51-11.86-9.58-14.82-16.78l1-.83Z"/><path class="cls-3" d="M116,164.52c-3.41-5.4-11.87-2.07-11.9-10C109.84,154.69,115,155.65,116,164.52Z"/><path class="cls-3" d="M273.87,182.62l12.35,5.28c-4.12,4.73-9.53,2.76-13-3.86Z"/><path class="cls-3" d="M291.09,251.71c2.19.69,4.36,1.49,6.59,2.05a47.05,47.05,0,0,1,8.05,2.31c-6.26,1.2-12.34,1.34-18-3.52l3.57-.71Z"/><path class="cls-3" d="M212.79,304.92l-3.64,2.81,4.56,2.31-.89,2.12a77.51,77.51,0,0,1-8.5-3.77c-.46-.26.17-3.79.48-3.82A54,54,0,0,1,212.79,304.92Z"/><path class="cls-2" d="M43.09,385.3c-5-4.05-9.43-8.45-8.64-16.06l9.79,15.35Z"/><path class="cls-3" d="M290,193c5.49-1.1,10.1-1,13.61,3.44C297.71,199.09,295.12,198.49,290,193Z"/><path class="cls-3" d="M189.67,270.19c-3.42,1.68-5.69,3-8.09,3.89a5.87,5.87,0,0,1-3.85.19c-.7-.26-1.53-2.28-1.2-2.75.85-1.23,2.31-2.86,3.53-2.86C182.93,268.65,185.8,269.5,189.67,270.19Z"/><path class="cls-2" d="M58.18,450.75C54,444,54,436.6,58.18,430.89Z"/><path class="cls-3" d="M200.74,199c2.85-1.57,5.35-3.85,8.1-4.19,2.31-.29,4.9,1.66,7.37,2.62l-.38,1.57Z"/><path class="cls-3" d="M145.58,261.09l-11.31-6C142.24,252.34,146.29,254.58,145.58,261.09Z"/><path class="cls-3" d="M368,287.14a43.71,43.71,0,0,1,6.56-3.45c1.21-.41,2.83.38,4.27.63-.85,1.28-1.45,3.31-2.6,3.7-2.4.8-5.09.73-7.66,1Z"/><path class="cls-3" d="M212.77,210.3l8.72,3.68-2.57,6L211,213Z"/><path class="cls-3" d="M149.55,296.94c4,1.76,7,2.94,9.85,4.44.64.34.68,1.82,1,2.78a8,8,0,0,1-2.5.68C155.7,304.7,154.38,303.39,149.55,296.94Z"/><path class="cls-3" d="M121,165.07l-1.18,5.48-3.28-4.68,5.54-4.57,5.7,8.31-1,.81Z"/><path class="cls-3" d="M104.36,265.64c-3.09-.2-6.24-.12-9.21-.83-.58-.14-.44-3.29-.75-6.08l10.23,5.11Z"/><path class="cls-3" d="M80.15,267.38c4.25-2.85,7.94-1.3,11.46,1.54l-.19,1.59-11.49-1.35Z"/><path class="cls-3" d="M90.84,38.59l4-3.1,3.25,9-4.78.84-2.35-6.83Z"/><path class="cls-2" d="M57.22,368.31l-4.34,14.24C50.26,377.26,51.65,371.67,57.22,368.31Z"/><path class="cls-3" d="M199,180.8l-11.33-14,1.47-1.21,11.54,13.87Z"/><path class="cls-2" d="M36.75,454.27l6.77,12.07-1.54.83C37.77,464.11,36.46,459.51,36.75,454.27Z"/><path class="cls-3" d="M260.77,314.66h13.82C271.68,318.81,267.58,318.77,260.77,314.66Z"/><path class="cls-3" d="M339.64,190.22l-13.14-1.84C331.39,185,336.47,185.56,339.64,190.22Z"/><path class="cls-3" d="M151.15,94.65h15.41v1H151.13Z"/><path class="cls-2" d="M444.35,319.72V298l.62,0v21.75Z"/><path class="cls-2" d="M36.7,325.15v13.76C33,334.62,33,334.62,36.7,325.15Z"/><path class="cls-3" d="M338.63,242.3c-3.08,5.89-6.52,4.07-10,2.21l-.11-1.49Z"/><path class="cls-3" d="M296.34,270.87l-13.89-2.95C286.61,264.93,291.35,265.85,296.34,270.87Z"/><path class="cls-2" d="M88.15,527.75l-8.29,11.88-1.51-1c.91-5.23,6.38-7.52,8.64-11.88Z"/><path class="cls-3" d="M353.6,228.69l9.5,10-1.4,1.46L352,230.26Z"/><path class="cls-3" d="M63.26,63.8,75.52,76.31l-.58.59L62.25,64.67Z"/><path class="cls-3" d="M206.35,280.1a61.48,61.48,0,0,1,5.45-3.88c.53-.31,1.65.4,2.49.64-.27.77-.32,2-.86,2.25-2,1.08-4.08,1.87-6.14,2.77Z"/><path class="cls-3" d="M221.6,205.16c-2,5.07-5,3.4-7.44,2.87-.47-.1-.58-1.87-.86-2.87Z"/><path class="cls-3" d="M363.63,202.72l9.23,4.7C368.18,209.16,364.88,208,363.63,202.72Z"/><path class="cls-2" d="M65.33,371.15l-6.89,10.12C57.68,376.1,60.54,371.58,65.33,371.15Z"/><path class="cls-3" d="M217.34,186.34l-2.38,6-1.18.39-1.92-6.53Z"/><path class="cls-3" d="M197.91,142.76l-8.46-11.33,1.62-1.19,8.36,11.41Z"/><path class="cls-3" d="M220.32,246.54c-2-2.32-5.95-4.06-1.37-9.13l3,8.5Z"/><path class="cls-3" d="M208.33,249.56c-7-3.37.35-6.61-1.42-9.55l1.85-.06Z"/><path class="cls-3" d="M282,258.5l-9-1,.17-1.49h9.21Z"/><path class="cls-3" d="M130.43,254a68,68,0,0,1-6.67-1.8c-.18-.06.36-2.15.7-4.05l6.55,4.12Z"/><path class="cls-3" d="M203.16,183.21l5.28,7.45L206.54,192l-5.18-7.37Z"/><path class="cls-3" d="M155.7,220l4.92-3,2.58,3.28-5.7,2.21Z"/><path class="cls-3" d="M133.05,215.1,138.8,224l-1.6,1.06-5.87-8.63Z"/><path class="cls-1" d="M293.27,546.41l-3.66-3.93-4.35,4.84L282,542.48l-3.18,1.94c-3.72-9.08-12-3.91-18.11-7.45,5.3-.44,10.59-1,15.89-1.28,6.27-.28,12.56-.29,18.85-.35,5.66-.05,11.33-.1,17,0,3.61.07,5.85-1.42,7.36-4.76,4.27-9.45,5.29-19.46,6.07-29.66,1.5-19.58,3.51-39.12,5.33-58.67,0-.43.42-.83,1.47-1.26,0,3.41.23,6.84,0,10.23-1.66,21.25-3.23,42.51-5.28,63.72-.58,6-2.65,11.89-4.17,18.38,39-1.21,72.63-17.37,105.16-38.05-1.69,4-4.4,7.59.09,11.3l-.88.83-6.45-2.06-.53,5.29-6.9-1.91,1.65,9.19L407,513.2l-.56,6.22-4.85-1.91c-2.11.17-.69,6.66-5.16,2.18l-1.24,4.71-5.61-2.11-1.11,5.4c-3.59-3.32-7.08-4.12-10.47-.4l1.35,7.63-1.25.58-4.66-7-1.06.17.8,11.37-2,.35-3.8-8.66-1.54-.16-2.8,8.64-4-7.28-3.92,7.8c-2.42-7.38-7.73-5.59-12.41-5-8.57,1.17-17.07,2.91-25.65,4a121,121,0,0,1-16.45.75C297,540.5,294,540.9,293.27,546.41Z"/><path class="cls-1" d="M214.39,444.47c-.46,3.15-.76,6.34-1.41,9.46-4.74,22.64-4.84,45.66-5.7,68.62-.12,3.13-.2,6.43-1.2,9.33-1.5,4.31.36,4.89,3.91,4.89q12.24,0,24.47.41a7.53,7.53,0,0,1,4.68,2.13c-12.74,5.25-25.49.87-37.87,1.11-.45-1-.76-1.37-.68-1.59,5.79-16.11,1.76-33.08,4.37-49.46,2.15-13.46,4.15-27,6.33-40.41a23.94,23.94,0,0,1,1.86-4.78Z"/><path class="cls-1" d="M217.79,484.26l2.72-23,1,.11L219.37,517h-2.15V487.26l-2-.11-1.34,30.19-1.46-.11c-3.92-7.5,2.84-73.44,9.3-83.95.4,18.07-6.87,34.12-5.3,50.86Z"/><path class="cls-1" d="M405.49,547.82l.61-10.26,1.3,0,3.4,5.8,1.51-.52L408.05,530l6.81-1.6c2.38,4,5.16,8.35,7.42,12.92.5,1-.49,3.93-1.44,4.29a216.34,216.34,0,0,1-21.52,7.27c-1.85.5-5.42-.77-6.3-2.31-1.6-2.79-1.77-6.41-2.54-9.68l2-.66,5,8.6,1.31-.56-.62-7.63,1.75-.66,4.29,7.93Z"/><path class="cls-1" d="M114.4,458.53c-.47,11.69-.85,23.39-1.51,35.08a9.85,9.85,0,0,1-2.26,5.82c-3.61,3.83-6.86,7.68-7.41,13.18-.05.52-.73,1-1.94,2.48l-1.77-8-2.42,2.17-1.4-.31c.23-7.69.93-15.31,5.83-22.2l-2.84,10.48c7.25-1.79,3.12-9.74,7.86-13.31,2.67,6.95-.81,11.92-3.35,17.67,1.07-.73,2.71-1.22,3.12-2.22,1.75-4.22,3.94-8.49,4.45-12.92.8-6.88.18-13.92.58-20.87.15-2.63,1.48-5.19,2.27-7.78Z"/><path class="cls-1" d="M162.48,463a51.82,51.82,0,0,1,0,6.52c-1,7.58-2.12,15.14-3.18,22.71a7.1,7.1,0,0,0-.17,3c4.37,13.42-3.52,26.16-2.15,39.4a2.24,2.24,0,0,1-.61,1.31c-.17.22-.58.27-1.39.61a9.43,9.43,0,0,1-.82-3c.41-5.46.7-10.95,1.56-16.34a84.89,84.89,0,0,0,.54-21.17c-1-11.13,1.49-22.32,4.57-33.13Z"/><path class="cls-1" d="M346.07,452.12c-2,22.09-1,44.49-6.79,66.18l-1.65,0c-.22-.51-.76-1.15-.61-1.52,4.81-12.49,2.54-25.67,3.73-38.5.63-6.78,1-13.6,1.65-20.38.21-2.1,1.14-4.13,1.74-6.19Z"/><path class="cls-1" d="M325.52,465.11c-.47,4.53-1.14,9-1.36,13.58-.45,9.25-.24,18.56-1.11,27.76-.52,5.52-2.45,10.93-4,16.31-.43,1.49-1.84,2.69-2.94,4.22-.61-.82-.82-1-.79-1.08,7.66-17.83,3.3-37.07,6.57-55.42.35-2,.89-3.91,1.34-5.87Z"/><path class="cls-1" d="M178.88,556.35l9.11-7.28c.87,4.42,3.18,4.65,7.22,3.82,2.75-.57,6.07,1.77,9.16,2.74,4.17,1.31,8.37,2.55,12.56,3.81l-.42,2Z"/><path class="cls-1" d="M197.4,513.15a248.45,248.45,0,0,1,6.07-57.67l1.69.18L199,513.32Z"/><path class="cls-1" d="M88.66,504.35a22.9,22.9,0,0,1,0-4.38,56.45,56.45,0,0,0-1.17-28c-1.28-4.23-.22-9.16.32-13.84,2.43,5.63-1.24,13.72,6,17.11l1.71-.64.71,4.36-3.15-1.74c.86,9.55,1.69,18.75-2.65,27.25Z"/><path class="cls-1" d="M159.47,540.49l4.47-49C168.15,499.27,166,532.61,159.47,540.49Z"/><path class="cls-1" d="M393,488.36c-.26-.44-.75-.9-.69-1.24,2.7-14,1.61-28,.15-42.06-.07-.69.6-1.45,1-2.25C398.4,447.29,398,482.59,393,488.36Z"/><path class="cls-1" d="M125.75,509.85c-2-1-2.76-2.17-1.86-4.61,4.48-12.18,6-24.81,6.12-37.77,0-4.76,1.69-9.5,2.61-14.25l1.63.18a8.44,8.44,0,0,1,.43,2.41c-1.14,9.39-2,18.83-3.62,28.14-1.23,7.27-3.36,14.39-5,21.6a33.66,33.66,0,0,0-.43,4.46Z"/><path class="cls-1" d="M106.63,519.75c-2-4.49-1.33-8.74,1.67-12a30.75,30.75,0,0,0,8.62-24.64c-.15-1.87.81-3.82,2.12-5.59,1.72,7.43,1.56,14.76-1.57,21.6S110.54,512.39,106.63,519.75Z"/><path class="cls-1" d="M437.62,406.61c-4.86-10.73-6.44-21.18-8.76-32.38C434.55,377,440.84,400.33,437.62,406.61Z"/><path class="cls-1" d="M150,518.55c4,12.75-.93,32.43-8.4,36.41-1.24-3.92.41-6.91,2-10.15A53.6,53.6,0,0,0,148,533.14C149.11,528.38,149.35,523.43,150,518.55Z"/><path class="cls-1" d="M445.11,442.38c.41,4.42,1.32,8.87,1.1,13.27-.24,4.78-1.41,9.54-2.43,14.25-.21,1-1.5,1.69-2.3,2.52-.33-1-1-2-.93-3q.7-11.17,1.67-22.32a35.12,35.12,0,0,1,1.09-4.82Z"/><path class="cls-1" d="M102.43,451.41c-1,5.22-2.35,10.47-2.76,15.78-.39,5,2.65,10,1,15.92C94.42,475.94,96.18,454.3,102.43,451.41Z"/><path class="cls-1" d="M467.54,484.92c8.48,1,18.15,12.65,18.18,20.59Z"/><path class="cls-1" d="M444.19,434.66c-4.61-5.11-6.49-20.56-3.22-23.74C443.78,418.92,445.19,426.65,444.19,434.66Z"/><path class="cls-1" d="M333.58,499.13c3.34,2.54,1.75,14.1-3.13,22.8C329.09,515.91,331,502,333.58,499.13Z"/><path class="cls-1" d="M379.94,452.2c4.07,4.64,3.42,18.41,0,21.76Z"/><path class="cls-1" d="M261.66,476.93l1.86-27.71C267.53,454.73,265.8,472.75,261.66,476.93Z"/><path class="cls-1" d="M176.51,510.31c1.38,7.85,1.87,15,.11,22.84C173.1,529,173.09,514.63,176.51,510.31Z"/><path class="cls-1" d="M323.38,450.26l2.16-25.88.84,0v26Z"/><path class="cls-1" d="M125.62,510l2.88-5c1.25,8.45-5,15.39-4.73,24.23-4.25-2-3.35-4.93-2.6-7.35,1.27-4.11,3-8.06,4.59-12.07Z"/><path class="cls-1" d="M232.46,484c.31,9-2.14,17.84-3.12,26.77l-1.74-.15,2.34-26.76Z"/><path class="cls-1" d="M384.36,487.82l3.82-24.06C391.55,470.46,389.47,483.53,384.36,487.82Z"/><path class="cls-1" d="M189,533.12V511.45C194.16,517.34,193.21,529.64,189,533.12Z"/><path class="cls-1" d="M336,491.72c-4.06-3.78-3.58-14.33,0-19.32Z"/><path class="cls-1" d="M135.51,478.69l3.56-22.48c2.85,3.12,1.34,17.25-1.64,22.68Z"/><path class="cls-1" d="M454.41,529.39l-9-16.52C453.27,515.25,458.54,525,454.41,529.39Z"/><path class="cls-1" d="M77.58,495.54c-2.55-4.26-1.56-9-1-13.6.07-.59,1.71-1.62,2-1.43.9.51,2.14,1.61,2.09,2.41-.23,4.25-.82,8.48-1.28,12.71Z"/><path class="cls-1" d="M477.32,504.36c-3.79-3.48-7.61-6.93-11.32-10.5a2.52,2.52,0,0,1,0-2.12c.82-.28,2.16-.52,2.65-.07,3.7,3.37,7.24,6.91,10.84,10.39Z"/><path class="cls-1" d="M97.87,448l-4.2,20.72C89.23,464.11,90.3,457.55,97.87,448Z"/><path class="cls-1" d="M268.74,465.94V447.45C272.9,450.95,272.87,458.67,268.74,465.94Z"/><path class="cls-1" d="M146.47,510.7a6.34,6.34,0,0,1,.43,2.17c-.9,5.18-1.83,10.36-2.92,15.51-.18.86-1.18,1.55-1.8,2.31-.48-.77-1.47-1.63-1.35-2.29,1.13-6,2.46-12,3.73-18Z"/><path class="cls-1" d="M471.23,527.07l-8-16.59C470.51,513.63,474.19,521.38,471.23,527.07Z"/><path class="cls-1" d="M189.18,538.08a24.64,24.64,0,0,1-18.2,1.67l-.09-1.67Z"/><path class="cls-1" d="M273.76,558.31c-.5,1.75-.56,4.54-1.57,4.94a18.8,18.8,0,0,1-7.92.86c-.55,0-.94-2.63-1.17-3.35Z"/><path class="cls-1" d="M477.51,523.5,470.27,508A11.83,11.83,0,0,1,477.51,523.5Z"/><path class="cls-1" d="M147.76,494l1.15-15.79,2,.15c1.77,5.43-.43,10.55-1.27,15.78Z"/><path class="cls-1" d="M119.64,502.52l3.69-19.44C125.54,485.06,123.51,498.48,119.64,502.52Z"/><path class="cls-1" d="M446.64,531.91l-5.8-11.74C447.49,521.5,450.35,526.84,446.64,531.91Z"/><path class="cls-1" d="M478.55,507.81c5.69-.49,8.26,3.38,5.64,9.65Z"/><path class="cls-1" d="M181.22,439.05c-.11,5.13,1.09,10.42-1.61,15.21l-2.24-.28,1.92-15.13Z"/><path class="cls-1" d="M387.55,456V442.61l1.37-.06V455.9Z"/><path class="cls-1" d="M171.3,533.05c-3.55-3.68-3.56-9.67,0-15.4Z"/><path class="cls-1" d="M184.24,516.59v15.73l-1.6-.1C180.54,526.89,183.37,521.75,184.24,516.59Z"/><path class="cls-1" d="M293.93,555.06l1.07,5.23-3.4-1.44a48.77,48.77,0,0,1-4.78,2.53c-.14.06-1.53-1.76-1.31-2.2a6.2,6.2,0,0,1,2.63-2.84C289.63,555.66,291.41,555.58,293.93,555.06Z"/><path class="cls-1" d="M401.34,423.07c-2.87,4.43-6.81,5.49-11.52,5.51C391.24,424.72,396.19,422.27,401.34,423.07Z"/><path class="cls-1" d="M110.14,438.25c-3.51-5.14-2.82-8.31,2.47-12.56Z"/><path class="cls-1" d="M273.43,456.27l1.81-12.62,2.42.34-1.53,12.72Z"/><path class="cls-1" d="M106.33,481.45c-3.58-4.78-3.38-13,0-16.22Z"/><path class="cls-1" d="M307.19,550.24c-3.85,6.16-4.84,6.27-10,1.2Z"/><path class="cls-1" d="M427.25,543.3l-5.9-9.69C427.14,533.81,429.12,537.07,427.25,543.3Z"/><path class="cls-1" d="M145.79,461.39l2.08-13.76,2.07.3-2.12,13.76Z"/><path class="cls-1" d="M439.55,535,436,523.73C442.07,527.12,442.92,529.72,439.55,535Z"/><path class="cls-1" d="M124.15,476.07a15.57,15.57,0,0,1,1-12.29l1.86.16-1.26,12.16Z"/><path class="cls-1" d="M156.23,451.19l-1.44,11-1.85-.27c-1.59-4,.05-7.52,1.55-11.07Z"/><path class="cls-1" d="M137.75,522.17l-1.59,10.68c-3.64-3-3.6-3.47.31-10.83Z"/><path class="cls-1" d="M133.3,437.42l2.53-11.67,2,.36-2.1,11.77Z"/><path class="cls-1" d="M309.07,557.55l.72-8.84,1.83.08v8.91Z"/><path class="cls-1" d="M140.27,451.89l2-13.37,1.95.23L142.63,452Z"/><path class="cls-1" d="M145.81,477.23,144,487.53l-2.21-.31,1.34-10.52Z"/><path class="cls-1" d="M253.61,564.41l5.46-4.66,1.5.63c-.42,1.59-.37,3.69-1.39,4.65s-3.19,1-4.86,1.37Z"/><path class="cls-1" d="M315.62,556.18c-1.58-3.23-1.62-6.29,1.86-9v9Z"/><path class="cls-1" d="M421.43,397.29l-1.72-9,2.74-.45,1.31,9.07Z"/><path class="cls-1" d="M453.26,510.3c2.14,2.1,4.33,4.16,6.39,6.34a1.81,1.81,0,0,1-.15,1.74c-.31.36-1.42.6-1.67.36-2.23-2.12-4.35-4.35-6.51-6.55Z"/><path class="cls-1" d="M398.89,448.19l-1.43-9.89C402,441.53,402.29,443.31,398.89,448.19Z"/><path class="cls-1" d="M128.18,531.1l1-9.45,2.31.28-1.32,9.42Z"/><path class="cls-1" d="M192.51,447.17,194.06,437l1.87.2-.62,10.23Z"/><path class="cls-1" d="M64.27,404.22V394C67.46,396.27,67.53,399.26,64.27,404.22Z"/><path class="cls-1" d="M120.81,546.8c-1,2.08-2.05,4.19-3.23,6.2-.09.15-1.37-.4-2.09-.62l2.63-6.71Z"/><path class="cls-1" d="M248.42,476.84l1.43-8.87,1.8.18-.75,9Z"/><path class="cls-1" d="M195.92,470.25l-1.81,9.93-1.78-.23,1-10.05Z"/><path class="cls-1" d="M437.87,437.92v7.93l-2,.07-.41-8.07Z"/><path class="cls-1" d="M240.38,439.11a41.91,41.91,0,0,1-.1,6.07c-.12.79-1.32,1.41-2,2.11-.46-1-1.46-2.2-1.28-3.11a29.12,29.12,0,0,1,2.15-5.33Z"/><path class="cls-1" d="M127.5,431.6l1.17-9.58,2.48.37-1.62,9.44Z"/><path class="cls-1" d="M93.1,428.5l2.37-9.36,1.69.43-1.78,9.78Z"/><path class="cls-1" d="M118.31,516.41l-2.49,9.12-2-.6,2.61-9.08Z"/><path class="cls-4" d="M404.79,247.46l9.74-1.07.32,1.59c-2,1-3.93,2-6,2.82a30.69,30.69,0,0,1-4.38,1l.48-4.56Z"/><path class="cls-5" d="M95.64,357.37l-1.16,9.12c13.61-13.4,13.23-31.13,14.56-47.59,4.62-1,3.95,6.77,9.41,1.11l.39,2.51c-1.52,2.82-3,5.67-4.59,8.47-1,1.78-2.92,3.4-3.12,5.24a47.76,47.76,0,0,1-8.52,23.16c-3.51,4.88-3.62,10.15-.51,13.32.84.85,2.22,1.17,3.36,1.73a24.75,24.75,0,0,0,1.51-3.32c1.83-6.27,3.58-12.57,5.36-18.85l1.93.45-4.93,21.14,1.41.4,9.32-23.51,2.1.69c-2.45,10.85-10.55,20.65-5.78,33.81-2.76-.83-4.33-1-5.56-1.73-6.12-3.71-12.21-7.49-18.21-11.4C88.09,369.17,89.36,361.81,95.64,357.37Z"/><path class="cls-5" d="M90.46,353.71l3.82-34.31L92.16,319c-.37,2.07-1.07,4.14-1,6.21.13,9.26-.81,18.25-5.6,26.46-.41.71-.78,1.45-1.26,2.11-.14.2-.59.19-2,.56,3.67-10.81,6.58-21.28,4-33l-2.89,12.87c-3.6-6.56-2.34-20.34,2.22-26.48,10.45,3.11,13.27,7.36,12,17.71-.54,4.45-.86,8.93-1.16,13.4A23.89,23.89,0,0,1,90.46,353.71Z"/><path class="cls-5" d="M155.45,351l-3.36,13.69,1,.45,5.72-14.72,1.61.38a34,34,0,0,1-.73,4.69c-.85,2.86-1.93,5.66-2.9,8.49s-2.07,5.15-5.48,2.64L147,373.83l3,.18-6.07,18.76-1.37-.31,3.17-15.52-1-.45-4.08,8.33c-.65-2.17-1.57-3.54-1.26-4.54a48,48,0,0,1,3-6.27q4.69-9.84,9.35-19.71c.6-1.26,1.21-2.52,1.82-3.77Z"/><path class="cls-5" d="M127.21,392.13c-.39-4.15-2-8.67-.94-12.39,3.67-12.58,8.31-24.88,12.62-37.27.12-.34.69-.51,2.46-.29-2,7.56-3.07,15.56-6.3,22.55-3.52,7.62-6.28,14.95-5.34,23.4a16.63,16.63,0,0,1-.43,3.77Z"/><path class="cls-5" d="M131.15,351.53l-8.89,37.1c-.56-2.73-2.2-5.87-1.53-8.41,2.6-9.84,5.94-19.48,9-29.2Z"/><path class="cls-5" d="M157.2,388.07l8.65-32C168.72,359.51,163.35,381.25,157.2,388.07Z"/><path class="cls-5" d="M67,325c-.12-7.9,2.27-14.47,4.52-21.53C74.74,307,71.8,321.86,67,325Z"/><path class="cls-5" d="M105.21,315.56l-2.52,20.77c-4.23-5.09-3.27-16.3,1-20.94Z"/><path class="cls-5" d="M127.94,324.87l-4.18,21.59c-3.15-2.67-1.11-17,2.56-21.91Z"/><path class="cls-5" d="M49.69,291.83c2-7.36,3.16-15.37,13.2-16.45Z"/><path class="cls-5" d="M72.53,322.09c1.78-6.29,3.44-12.62,7.39-18l1.49.57c-.57,1.58-1.26,3.13-1.69,4.75-.81,3-1.29,6.1-2.28,9-.59,1.77-1.87,3.31-2.83,5Z"/><path class="cls-5" d="M76.51,285.9l-3.18-3c1.7-3.06,5.29-.92,10,6.27l-9.82.52-.66-1.81Z"/><path class="cls-5" d="M68.66,298.15,64.3,311.28C61.75,305.17,63,300.93,68.66,298.15Z"/><path class="cls-5" d="M63.09,316.91c2.18,4,1.66,5.68-3.74,8.36l2.09-8.69Z"/><path class="cls-5" d="M167,349.93l2.84-10.7,2.29.64L169,350.51Z"/><path class="cls-5" d="M59.2,308.57c-.71,3.09-1.35,6.2-2.21,9.24-.14.48-1.26.68-1.93,1-.35-1-1.25-2.19-1-2.92,1.08-2.68,2.55-5.2,3.88-7.79Z"/><path class="cls-5" d="M120.26,334.7l-3.81,13.22-1.67-.44,3.78-13.1Z"/><path class="cls-6" d="M339.59,348.11c-5.73,14.31-1.8,29-1.22,43.56l-1.24.22-4.56-16.94-1.44.17,1.71,20.31-1.08.32a15.69,15.69,0,0,1-1.58-3.65c-1.06-6.72-2.23-13.44-2.75-20.21-.16-2.06,1.76-4.21,2.45-6.41a23.69,23.69,0,0,0,.92-5.59c0-.19-1.81-.49-3.7-1l4.22-15.6,1.33.22.47,5.19,1,.32c1.68-5,4-9.81,4.87-14.9.89-4.94.39-10.14.49-15.22l2.17.07v22.77c5.4-6.63,4.08-14.73,2.26-22.92l2.36,0,2.14,11.44,3.14-1.75c-.7,7.45-1.34,14.2-2,21-.64,6.95-1.79,13.9-1.72,20.84.07,6.7,1.41,13.39,1.45,20.15-4.46-14.76-7.68-29.62-2.48-45l-2.13-.18a56.4,56.4,0,0,0-1.86,7.07,88.51,88.51,0,0,0,2,33.23,6.78,6.78,0,0,1-.93,5C340,376.64,336.27,362.77,339.59,348.11Z"/><path class="cls-6" d="M315.7,326.27l3.41-4.26c1.09,1.42,2.95,2.74,3.14,4.26.67,5.48.78,11,1.07,16.15l2.18-2c.58,1.05,1.46,1.9,1.35,2.58-.62,3.77-1.47,7.51-2.27,11.25-.91,4.23-1.68,8.5-2.82,12.67A46.86,46.86,0,0,0,322.2,393a8.21,8.21,0,0,1-.25,5.15c-5.59-9-5.52-19.11-5.83-29.17l-1.76.12,1.65,32-1.44.24c-1.25-5.83-3-11.6-3.65-17.5-1.39-11.84,1.72-23.09,5.17-34.31a112.44,112.44,0,0,0,3.59-17c.25-1.77-1.23-3.79-1.92-5.7Zm4.7,27.2-1.78-.38L316,365.64l1.84.4Z"/><path class="cls-6" d="M418.75,320.38l-1.29,6.1c-4.09-6-5.22-12.05-5.94-18.06-.75-6.24-.46-12.6-.86-18.9s-1.07-12.41-1.65-19l5.59-8.21-1-.88c3.18-1.58,5,.38,6.19,2.89a77.36,77.36,0,0,1,5,12.47c.47,1.75-.91,4.09-1.66,6.08-.94,2.48-3.15,4.95-3,7.3.63,9.56,2,19.07,3,28.6.18,1.72,0,3.48,0,6.67ZM416,313.7l1.86-.22c0-7,.19-14-.06-21a106.48,106.48,0,0,0-1.62-15.31c-.45-2.43-2.2-4.61-3.82-7.83Zm-1.36-47.14,6.49,13.15C421.57,272.65,419.29,268.29,414.59,266.56Z"/><path class="cls-6" d="M221.4,352.88c-3,5.06-3.17,9.51-2.51,14.58.81,6.18.1,12.57.05,18.86l-1.81-.05V348l-.48-.32c-.65,3-1.47,5.89-1.89,8.87s-.43,5.95-.62,8.92l-1.74.11-2.61-6.52L208,375.59l-2.34-.32c.56-10.08.81-20.19,5.25-29.88v8.56l1,.28,3.53-9,11.39-5.46c0,2.78.4,5-.07,7.09-2,8.78-3.54,17.33-1.66,26.59,1.39,6.85.35,14.24-.06,21.36-.14,2.36-1.67,4.64-3.63,6.55Z"/><path class="cls-6" d="M361.16,318.42v28.87l1.87,0V316.18l1.19-.16c.57.89,1.61,1.76,1.65,2.68.42,11.2.69,22.4,1,34l-4-1.9-.65,6.58c-5.69-3.46-7.14-29.17-2.54-39.12Z"/><path class="cls-6" d="M190.52,352.28l-3.71,1,2.72-10.85c2.81,0,4.76-.38,6.44.12,1.34.4,3.53,2.26,3.35,2.84-3.11,9.87-2.17,21.09-10.48,30.61Z"/><path class="cls-6" d="M250.78,356.13l-4.1-1.78-2.59,8.15-2.55-5.07-.94-.06v23.71l-2.08.35c-.47-1.56-1.42-3.15-1.34-4.69.4-7.8.87-15.61,1.79-23.36.18-1.53,2.4-2.82,4.06-3.74l4.51-7.78Z"/><path class="cls-6" d="M210.94,411.74c-7-3.91-1.3-11.13-3.87-16.8-4,5.37-3.48,11-2.69,17.09-3.08-2.76-1.32-28,2.35-32.27v12.62l1.43.19,2.17-10.52,2.21.33Z"/><path class="cls-6" d="M233.19,399.6c-.29-14.41-1.12-28.84-.64-43.23.21-6.32,2.12-12.92,7-18.06-1.28,5.76-3.21,11.46-3.68,17.29-.66,8.25-.24,16.58-.27,24.88,0,6.36,0,12.72,0,19.09Z"/><path class="cls-6" d="M292.36,373.44c.27-14,1-28,7.15-40.94l1.74.3-7.51,41Z"/><path class="cls-6" d="M287.22,337.1c2.31.81,3.68,1,4.76,1.73,2,1.29,2.19,2.6-.08,4.14-1.53,1-3.23,2.49-3.81,4.13-2,5.69-3.55,11.53-6.16,17.08C281.28,354.81,285.12,346.44,287.22,337.1Z"/><path class="cls-6" d="M397.17,317.14c-.86-2.85-2.24-5.66-2.46-8.56-.44-5.7-.25-11.45-.26-17.18a21.66,21.66,0,0,1,.78-3.45c1.3,1.7,2.49,2.54,2.58,3.48.76,8.38,1.32,16.77,1.93,25.16Z"/><path class="cls-6" d="M273.83,342.66l-7,29.94C263.13,369.18,267.85,346.64,273.83,342.66Z"/><path class="cls-6" d="M200.28,375.36c1.45-10.66-.51-21.84,4.56-31.94l1.45.21-3.94,32.11Z"/><path class="cls-6" d="M362.13,385.58c-.5-.7-1.18-1.23-1.3-1.87-1.07-5.73-2.29-11.45-2.87-17.23-.16-1.62,1.26-4,2.68-5,2-1.53,4.24.17,3.23,2.14-3.56,7-.65,14-.87,21C363,384.81,362.63,385,362.13,385.58Z"/><path class="cls-6" d="M329.26,327.86c1.1-.63,2.72-1,3.2-2,.82-1.64.93-3.63,1.42-5.85,3.27,3,3.69,12.28.81,18.45l-2.48-6.19-2.89,2.56v-7.12Z"/><path class="cls-6" d="M273.75,363.34c1.61-8.61,1.57-17.62,6.61-25.22C279.84,347,278.65,355.69,273.75,363.34Z"/><path class="cls-6" d="M308.14,362.08l-5.07,23.34C300.41,379.81,303.19,366,308.14,362.08Z"/><path class="cls-6" d="M313.69,329.39c2.89,4.2.15,18.51-4.69,23.2Z"/><path class="cls-6" d="M417.28,340.42l5.27,11.11L415.64,355l.66-14.41Z"/><path class="cls-6" d="M297.33,400.25c-3.71-5.48-5-12.47,0-18.71Z"/><path class="cls-6" d="M249.72,361.93l-2.34,18.79c-1.54-1.22-2.86-1.84-2.8-2.27.8-5.69,1.79-11.36,2.73-17Z"/><path class="cls-6" d="M381.17,357.73c5.25,3.06,6.47,10.42,2.45,14.68Z"/><path class="cls-6" d="M198.72,410.66c-2.87-1.62-3.65-12.28,0-18.09Z"/><path class="cls-6" d="M329.32,327.75l-3.18,6.75L323.57,317c5.87,2.37,4.89,7.07,5.68,10.91Z"/><path class="cls-6" d="M254.57,369c-3.7-3.93-2.29-11.66,2.56-16.2Z"/><path class="cls-6" d="M288.07,382.79c-4.25-3.77-3.95-7.9,1.24-15.08Z"/><path class="cls-6" d="M287.34,387.47c4.21,6.29,3.69,9.82-2.49,14.16Z"/><path class="cls-6" d="M375.22,358.9c1.15,6.05,3.7,11.24,3.52,17.75C375,373.75,373.17,363.73,375.22,358.9Z"/><path class="cls-6" d="M299.09,372.91c-1.5-5.92,1.86-15.37,6.45-17.81Z"/><path class="cls-6" d="M264,379.13l-2.43,14.12C258.15,389.09,259.65,381.74,264,379.13Z"/><path class="cls-6" d="M304.83,343.31l3-15.62,2.4.41-2.89,15.6Z"/><path class="cls-6" d="M273.3,369.13c.64,4.34,1.41,8.69-1.53,12.49l-1.94-.26,1.62-12.65Z"/><path class="cls-6" d="M229,352.11c-1-5.35,1.22-12.52,5.13-14.84l-3.66,15.24Z"/><path class="cls-6" d="M402.16,293l-2.37-10.93C405.12,285,405.94,288.76,402.16,293Z"/><path class="cls-6" d="M404.38,317,402.87,300l1.78-.18,2,16.83Z"/><path class="cls-6" d="M292.73,349.83l-3,13.64-2.22-.51c-.29-4.87,2.1-9.15,3.51-13.64Z"/><path class="cls-6" d="M381.23,303.34c4.26,2.77,4.53,5.85.81,11C380.76,310.09,378.79,307.33,381.23,303.34Z"/><path class="cls-6" d="M389.08,306.35l-2.43-10.91c2.42,1.62,4.49,2.26,4.72,3.32.53,2.41.17,5,.17,7.55Z"/><path class="cls-6" d="M272.62,400.19l-.45-10c4.77,3,3.73,6.47,2.74,9.92Z"/><path class="cls-6" d="M229.07,360v11.85h-1.45v-11.7Z"/><path class="cls-6" d="M280.15,400.7c-2.75-3-2.47-7.19,1-11.92C282.83,393.31,281.45,396.84,280.15,400.7Z"/><path class="cls-6" d="M262.35,363.54,261,373.77l-2-.15.51-10.34Z"/><path class="cls-6" d="M402,321.73l1.39,10.76-2,.28L400,322Z"/><path class="cls-6" d="M370.79,360l1.25,9.47-2.06.34-1.75-9.4Z"/><path class="cls-6" d="M410.48,355.24l-.87-10,2.3-.16.55,10.1Z"/><path class="cls-6" d="M265.8,348.39l-3.86,9.7C260,351.6,261,349.35,265.8,348.39Z"/><path class="cls-6" d="M282.66,370.68l-1.58,9-1.81-.18.49-9.13Z"/><path class="cls-6" d="M370.82,323.19l.37,6.9-2.27.09v-6.91Z"/><path class="cls-7" d="M168.56,101.85l-11.26,2.42-.18.52,13.67,1.13v1.78l-5.48,1.4,3.39,2.82-28.9,2.77-.3-1.15,19.42-3.25-.18-1.35-23.31,2.7c9.25-11.65,21.53-9.56,33.14-9.8Z"/><path class="cls-7" d="M168.73,121.64l-14.78.88v.7l15,1.4-.14,2.13H149.67c-.45-1.3,4.86-3.85-3.13-4.47l2.73-1.22h19.34Z"/><path class="cls-7" d="M144.12,130.92l-10.3,2L130,126.31h12.46l.22.73-8.24,1,0,1.28h9.59Z"/><path class="cls-7" d="M168.59,116.66l-23.87,2-.18-2,23.85-2.24Z"/><path class="cls-7" d="M148.4,138.59c5.43-1,10.71-3.81,16.41-1.5l.14,1.45-16.33,1.79Z"/><path class="cls-7" d="M152,129.5c5.19.46,10.53-1.1,15.61.8l-.19,2.42-15.54-1.62Z"/><path class="cls-7" d="M125.89,182.63l7.3,9.78-1.92,1.36-6.87-10.25Z"/><path class="cls-2" d="M320.4,353.47,317.81,366l-1.84-.4,2.64-12.55Z"/><path class="cls-2" d="M416,313.7l-3.65-44.34c1.63,3.22,3.38,5.4,3.82,7.83a106.48,106.48,0,0,1,1.62,15.31c.26,7,.06,14,.06,21Z"/><path class="cls-2" d="M414.59,266.56c4.7,1.73,7,6.09,6.49,13.15Z"/></g></g></svg>