<svg xmlns="http://www.w3.org/2000/svg" viewBox="0 0 479.57 479.61">
    <defs><style>.cls-1{fill:#f4f4f480;}</style></defs>
    <title>Asset 15</title>
    <g id="Layer_2" data-name="Layer 2">
        <g id="Layer_1-2" data-name="Layer 1">
            <path class="cls-1" d="M414.44,222.33c-31.13,22.19-61.8,44.08-92.49,65.93q-28.19,20.07-56.44,40c-5.73,4-8.57,3.6-13.32-1.54q-40.51-43.75-81-87.5c-5.6-6.05-5.56-6-12.31-1.56q-73.29,48.53-146.61,97c-4.19,2.77-8.51,2.8-10.76-.19-2.93-3.89-1.12-7.12,1.85-10.06q61.52-61,123-122,26.92-26.69,53.88-53.35c5.23-5.18,8.11-4.94,13.13.45q27,29,54.27,57.86c5.92,6.31,12.1,12.4,17.69,19,2.34,2.75,4,2.64,6.64,1q34-20.7,68-41.31c10.07-6.1,20.17-12.16,30.24-18.26,1.55-.94,3-2,4.88-3.27-5-7.47-9.79-14.76-14.66-22q-8.33-12.37-16.75-24.68c-2-2.88-3.38-5.67-1.16-9.12s5.64-3.22,8.9-2.6q47.12,9.08,94.2,18.32c9.26,1.8,18.52,3.54,27.76,5.43,4.87,1,6.86,4.21,5.91,9.09-7.86,40.48-15.66,81-23.75,121.41-.52,2.61-3,6.23-5.19,6.71s-6-1.7-7.57-3.84c-8.76-12.09-17-24.53-25.5-36.84C416.49,225.23,415.63,224,414.44,222.33Z"/>
            <path class="cls-1" d="M251.07,59.93c0,14.27-.12,27.76.17,41.23,0,1.4,2.22,3.39,3.84,4,8,3.08,16.43,5.18,24.2,8.75A52.63,52.63,0,0,1,308.85,171c-.47,2.6-.53,5.31-1.29,7.81-2.71,9-5.93,17.36-15.4,21.93-7.43,3.58-14.26,8.43-21.79,13-7-7.43-14-14.73-20.83-22.14-6.1-6.59-12.21-13.17-18-20a12.4,12.4,0,0,1-2.72-7c-.34-7.65-.24-15.33-.07-23,.06-2.83-1.05-4.08-3.61-5-7.91-2.9-16.06-5.42-23.52-9.24-17.1-8.78-25.68-23.32-26.54-42.47-.75-16.74,3.68-31.56,16.29-43.2,9.33-8.61,20.85-12.65,33.1-14.51,3.72-.56,4.3-2.13,4.24-5.15-.07-3.83-.15-7.68.12-11.49a11.06,11.06,0,0,1,22.09.06c.26,4,.2,8,.11,12-.08,3.1,1,4.24,4.32,4.52,21.42,1.79,41.1,17.79,47.16,38.08,2.4,8,1.76,15.62-4.53,21.67-5.52,5.32-12.31,7.14-19.79,4.76A18,18,0,0,1,265.86,79c-2.17-7.3-5-14.14-12.2-18A26.8,26.8,0,0,0,251.07,59.93Zm.37,130.44C266,185.79,272.69,176.06,271,162.6c-1-7.89-10.63-16.25-19.59-16.93ZM228.12,96.1v-37c-12.61,5.83-15.37,10.26-14.46,22.54C214.16,88.3,219.76,93.95,228.12,96.1Z"/>
            <path class="cls-1" d="M411.69,380.86q0-44.21,0-88.42c0-7.84,2.56-10.42,10.35-10.44q19.48,0,39,0c7.21,0,10,2.69,10,9.92,0,34.87-.08,69.75-.08,104.62,0,23.24.07,46.49.1,69.73a50.38,50.38,0,0,1-.15,6c-.55,4.6-3.2,7.26-7.88,7.29q-21.73.13-43.46,0c-5.33,0-7.83-3.09-7.84-9.26Q411.66,425.56,411.69,380.86Z"/>
            <path class="cls-1" d="M141.76,394.14c0,25.12.06,50.24,0,75.36,0,8.06-2.32,10.07-10.6,10.07q-19.25,0-38.5,0c-7.51,0-10.53-3-10.54-10.55q0-36.32,0-72.65,0-38.32,0-76.65c0-8.72,2.82-11.54,11.62-11.55,12.46,0,24.92,0,37.38,0,8,0,10.74,2.64,10.74,10.63q0,37.67,0,75.35Z"/>
            <path class="cls-1" d="M388.69,397.21q0,36.23,0,72.47c0,7.38-2.45,9.87-9.79,9.89q-20.24,0-40.48,0c-6.13,0-9.32-3.11-9.33-9.12q0-73.72,0-147.44c0-5.45,3.52-8.95,9-9q20.74-.11,41.48,0c6.07,0,9.07,3.13,9.08,9.22Q388.71,360.23,388.69,397.21Z"/>
            <path class="cls-1" d="M164.7,397.38q0-36.88,0-73.76c0-6.53,2.83-9.56,9.31-9.6q20.23-.12,40.46,0c6.9,0,9.54,2.85,9.55,10.24q.06,44.91,0,89.83,0,27.68,0,55.36c0,7.71-2.44,10.13-10.06,10.13q-20,0-40,0c-6.34,0-9.08-2.62-9.1-8.92q-.08-36.63,0-73.27Z"/>
            <path class="cls-1" d="M247.07,413.8q0-28.22,0-56.45c0-6.92,2.39-9.52,9.12-9.58q21.17-.18,42.34,0c5.41,0,8.08,3.35,8.1,9.71q.05,28,0,56t0,56c0,7.32-2.89,10.17-10.29,10.18q-19.73,0-39.47,0c-7.41,0-9.81-2.44-9.81-9.82Q247.06,441.77,247.07,413.8Z"/>
            <path class="cls-1" d="M59.65,424q0,22.73,0,45.45c0,7.38-2.79,10.12-10.26,10.13q-19.73,0-39.46,0c-7,0-9.85-2.87-9.85-10q0-45.7,0-91.41C.08,370.72,2.83,368,10.33,368q19.73,0,39.46,0c7,0,9.84,2.87,9.85,10Q59.67,401,59.65,424Z"/>
        </g>
    </g>
</svg>